<?xml version="1.0" encoding="iso-8859-1"?>
<!-- Generator: Adobe Illustrator 27.0.0, SVG Export Plug-In . SVG Version: 6.00 Build 0)  -->
<svg version="1.1" id="Layer_1" xmlns="http://www.w3.org/2000/svg" xmlns:xlink="http://www.w3.org/1999/xlink" x="0px" y="0px"
	 viewBox="0 0 500 500" style="enable-background:new 0 0 500 500;" xml:space="preserve">
<g>
	<g>
		<path style="fill:#fff;" d="M128.983,213.901c1.088,2.556,1.951,5.215,3.333,7.668c0.414,0.725,0.639,1.572,0.812,2.4
			c0.294,1.382,0.812,2.625,1.779,3.661c0.155,0.173,0.345,0.328,0.328,0.604c-0.069,0.812,0.466,1.451,0.691,2.176
			c0.138,0.449,0.622,0.535,1.019,0.674c0.224-0.397,0.017-0.674-0.121-0.967c-1.192-2.78-2.366-5.561-3.557-8.341
			c-0.052-0.138-0.069-0.311,0.069-0.587c0.035,0.104,0.069,0.207,0.121,0.294c1.174,2.331,2.4,4.663,3.54,7.011
			c0.846,1.744,1.451,3.592,1.882,5.492c0.069,0.276,0.104,0.553,0.138,0.829c0.017,0.104-0.035,0.225-0.086,0.466
			c-0.691-1.261-0.863-2.642-1.744-3.73c-0.276,0.294-0.518,0.553-0.777,0.829c0.035,0.121,0.035,0.242,0.086,0.328
			c0.863,1.468,1.295,3.126,1.986,4.663c0.674,1.502,1.33,3.039,1.986,4.559c0.207,0.484,0.397,0.933,0.846,1.295
			c0.535,0.432,0.898,1.019,1.123,1.692c0.363,1.105,0.777,2.193,1.192,3.298c-0.276,0.138-0.484,0.225-0.674,0.311
			c-0.052,0.38,0.173,0.622,0.449,0.639c0.587,0.052,0.95,0.363,1.209,0.881c0.432-0.259,0.466-0.691,0.604-1.036
			c2.936-7.443,5.872-14.869,8.807-22.312c2.539-6.459,5.094-12.935,7.633-19.394c0.484-1.243,0.898-2.504,1.123-3.834
			c0.086-0.501,0.294-1.019,0.535-1.468c0.345-0.674,0.777-1.312,1.157-1.969c0.674-0.104,1.261-0.017,1.848,0.155
			c2.504,0.794,5.008,1.554,7.495,2.383c0.794,0.259,1.589,0.622,2.314,1.036c1.623,0.933,3.368,1.554,5.181,2.003
			c0.432,0.104,0.863,0.224,1.278,0.363c0.898,0.259,1.744,0.656,2.47,1.243c0.155,0.121,0.311,0.207,0.466,0.311
			c0.086-0.104,0.173-0.155,0.19-0.207c0.276-2.901,0.553-5.785,0.829-8.687c0.276-2.97,0.587-5.958,0.863-8.928
			c0.19-2.055,0.38-4.11,0.57-6.148c0.294-3.057,0.587-6.113,0.881-9.17c0.086-0.967,0.173-1.934,0.294-2.901
			c0.086-0.777,0.432-1.123,1.174-1.105c1.9,0.052,3.799-0.294,5.682,0.086c0.622,0.121,1.295,0.052,1.934,0.017
			c1.813-0.121,3.627-0.086,5.44,0.121c1.123,0.121,2.262,0.121,3.385,0.121c2.383,0,4.766-0.035,7.15-0.052
			c1.347-0.017,2.659,0.173,3.955,0.501c0.725,0.19,1.019,0.501,1.002,1.416c0,0.397-0.138,0.794-0.242,1.192
			c-0.812,3.592-1.485,7.201-2.072,10.828c-0.863,5.336-1.727,10.69-2.59,16.026c-0.76,4.663-1.52,9.325-2.28,13.988
			c-0.691,4.231-1.382,8.445-2.072,12.676c-0.604,3.713-1.192,7.426-1.796,11.122c-0.553,3.437-1.123,6.856-1.71,10.275
			c-0.086,0.466-0.259,0.933-0.397,1.399c-0.259,0.812-0.501,1.623-0.432,2.487c0.017,0.345-0.069,0.708-0.104,1.157
			c0.225-0.035,0.414-0.052,0.604-0.069c0.311,0.207,0.017,0.604,0.242,0.863c0.397-0.242,0.743-0.484,1.14-0.691
			c0.363-0.19,0.743-0.328,1.157-0.501c0.017-0.259,0.052-0.518,0.086-0.829c0.933-0.311,1.675-0.933,2.435-1.537
			c0.691-0.553,1.433-1.053,2.21-1.623c-0.052-0.138-0.225-0.397-0.19-0.622c0.035-0.259,0.259-0.501,0.414-0.725
			c0.138-0.19,0.328-0.363,0.501-0.535c0.518-0.501,1.036-1.002,1.727-1.675c-0.121,0.501-0.155,0.794-0.259,1.019
			c-0.121,0.242-0.345,0.449-0.501,0.674c-0.19,0.259-0.138,0.518,0.086,0.76c0.674-0.311,1.502-1.036,2.763-2.435
			c0.069-0.069,0.173-0.138,0.225-0.242c0.035-0.052,0.035-0.19,0-0.207c-0.086-0.052-0.19-0.069-0.276-0.052
			c-0.104,0.017-0.19,0.104-0.294,0.155c-0.086-0.017-0.155-0.035-0.294-0.069c0.138-0.501,0.311-0.984,0.674-1.364
			c0.155-0.173,0.38-0.19,0.535,0c0.086,0.104,0.138,0.311,0.086,0.432c-0.104,0.242-0.259,0.449-0.466,0.777
			c0.466,0.017,0.691-0.173,0.933-0.38c0.484-0.432,0.95-0.881,1.451-1.295c0.501-0.414,1.002-0.829,1.554-1.157
			c1.019-0.622,1.9-1.364,2.642-2.28c0.121-0.155,0.225-0.345,0.294-0.432c0.518,0.19,0.881,0.311,1.295,0.466
			c0,0.397,0,0.829,0,1.364c0.242-0.069,0.449-0.086,0.587-0.173c0.259-0.19,0.484-0.414,0.708-0.656
			c0.725-0.812,1.433-1.641,2.176-2.435c0.915-0.967,1.9-1.882,2.521-3.091c0.052-0.086,0.19-0.121,0.294-0.173
			c0.035-0.017,0.086,0,0.155,0c-0.052,0.535-0.069,1.088-0.138,1.623c-0.035,0.19-0.173,0.363-0.294,0.518
			c-0.225,0.276-0.484,0.535-0.708,0.794c0.052,0.276,0.104,0.518,0.155,0.794c-0.121,0-0.276,0.052-0.328,0
			c-0.19-0.173-0.363-0.38-0.587-0.639c-0.466,0.622-0.086,1.364-0.518,1.969c-0.397,0.535-0.553,1.243-1.105,1.71
			c0.017,0.345,0.052,0.656,0.069,1.019c-0.311,0.259-0.622,0.501-0.915,0.76c-0.38,0.345-0.777,0.38-1.226,0.173
			c-0.086-0.311,0.225-0.743-0.276-0.933c-0.777,0.432-1.537,1.226-2.124,2.228c0.484-0.138,0.898-0.311,1.14-0.691
			c0.328-0.501,0.743-0.553,1.243-0.484c0.276,0.674,0.121,1.226-0.484,1.278c-0.691,0.052-1.088,0.432-1.468,0.933
			c-0.19,0.259-0.432,0.484-0.639,0.725c0.242,0.38,0.449,0.484,0.725,0.328c0.069-0.035,0.138-0.086,0.207-0.138
			c0.708-0.604,1.433-1.192,2.09-1.848c0.743-0.743,1.451-1.52,2.124-2.314c0.276-0.328,0.535-0.57,0.95-0.674
			c0.121-0.017,0.225-0.086,0.328-0.155c0.328-0.225,0.397-0.622,0.138-0.933c-0.121-0.155-0.276-0.259-0.501-0.466
			c0.173-0.104,0.294-0.19,0.432-0.225c0.604-0.155,1.105-0.484,1.572-0.898c0.155-0.138,0.294-0.276,0.466-0.363
			c0.38-0.207,0.691-0.155,0.984,0.155c0.19,0.207,0.328,0.449,0.466,0.639c-0.104,0.794-1.019,0.984-1.14,1.692
			c0.242,0.242,0.484,0.242,0.674,0.052c0.38-0.363,0.743-0.743,1.122-1.105c0.587-0.553,0.674-0.587,1.641-0.812
			c0.242,0.259-0.069,0.846,0.518,1.019c0.345-0.052,0.57-0.414,0.898-0.639c0.19-0.138,0.414-0.38,0.604-0.363
			c0.656,0.086,0.95-0.345,1.243-0.794c0.069-0.104,0.155-0.19,0.242-0.294c0.414-0.069,0.829-0.155,1.399-0.259
			c-1.243,2.21-2.383,4.283-3.972,6.096c-6.649,7.547-13.297,15.111-19.946,22.675c-6.252,7.098-12.503,14.213-18.72,21.328
			c-1.174,1.33-2.245,2.763-3.368,4.127c-0.276,0.345-0.553,0.691-0.881,1.002c-0.345,0.328-0.794,0.414-1.243,0.207
			c-0.57-0.294-1.157-0.587-1.675-0.95c-0.794-0.553-1.537-1.174-2.331-1.744c-0.553-0.397-1.123-0.794-1.692-1.157
			c-0.345-0.225-0.345-0.19-0.829,0.259c-0.138-0.449-0.276-0.863-0.414-1.295c-0.535,0.086-0.57,0.708-1.019,1.002
			c-0.121-0.276,0-0.553-0.052-0.794c-0.069-0.276-0.173-0.535-0.276-0.777c-0.104-0.259-0.225-0.518-0.345-0.76
			c-0.276-0.086-0.38,0.104-0.484,0.259c-0.155,0.242-0.294,0.466-0.484,0.76c-0.242-0.104-0.449-0.224-0.674-0.276
			c-0.225-0.069-0.466-0.086-0.725-0.121c-0.449-0.535-0.432-1.174-0.397-1.831c0.035-0.553,0.138-1.105-0.138-1.675
			c-0.432,0.138-0.846,0.259-1.261,0.397c-0.207-0.553-0.104-1.036-0.069-1.502c0.035-0.518-0.104-0.95-0.57-1.295
			c-0.207,0.138-0.432,0.276-0.622,0.397c-0.311-0.086-0.311-0.294-0.276-0.501c0.069-0.484,0.104-0.933,0-1.433
			c-0.138-0.604-0.017-1.209,0.19-1.779c0.294-0.846,0.518-1.71,0.276-2.556c0.242-0.414,0.449-0.76,0.708-1.157
			c-0.173-0.138-0.345-0.294-0.518-0.432c-0.294-0.225-0.294-0.449-0.069-0.725c0.069,0,0.155-0.035,0.207-0.017
			c0.639,0.259,0.829,0.121,0.743-0.501c-0.017-0.155-0.086-0.294-0.138-0.432c-0.19,0.035-0.345,0.069-0.57,0.121
			c-0.173-0.76,0.069-1.451,0.121-2.141c0.052-0.76,0.138-1.537,0.207-2.297c0.069-0.725,0.138-1.451,0.19-2.176
			c0.069-0.76,0.138-1.537,0.207-2.297c0.069-0.725,0.138-1.451,0.207-2.176c0.069-0.725,0.138-1.451,0.207-2.176
			c0.069-0.76,0.155-1.537,0.225-2.297c0.069-0.725,0.138-1.451,0.225-2.176c0.069-0.76,0.155-1.537,0.224-2.297
			c0.069-0.725,0.138-1.451,0.207-2.176s0.121-1.451,0.19-2.176c0.069-0.76,0.138-1.537,0.207-2.297
			c0.069-0.725,0.138-1.451,0.207-2.176c0.069-0.76,0.155-1.537,0.225-2.297c0.069-0.725,0.138-1.451,0.225-2.176
			c0.069-0.725,0.138-1.451,0.207-2.176c0.069-0.76,0.155-1.537,0.225-2.297c0.069-0.725,0.138-1.451,0.19-2.176
			c0.069-0.725,0.121-1.451,0.19-2.176c0.069-0.76,0.138-1.537,0.207-2.297c0.069-0.725,0.138-1.451,0.207-2.176
			c0.069-0.76,0.155-1.537,0.225-2.297c0.069-0.725,0.138-1.451,0.224-2.176c0.069-0.725,0.138-1.451,0.207-2.176
			c0.069-0.76,0.138-1.537,0.207-2.297c0.069-0.725,0.121-1.451,0.19-2.176c0.069-0.76,0.138-1.537,0.207-2.297
			c0.069-0.725,0.138-1.433,0.225-2.21c-0.414,0.052-0.449,0.345-0.553,0.57c-1.537,3.471-3.057,6.942-4.594,10.431
			c-3.575,8.134-7.15,16.268-10.724,24.402c-0.311,0.708-0.587,1.416-0.898,2.124c-0.19,0.432-0.207,0.466-0.829,1.053
			c-0.207-0.725,0.829-1.122,0.466-1.882c-0.898,0.432-1.019,1.364-1.468,2.055c-0.432,0.674-0.794,1.399-1.226,2.193
			c-0.138-0.294-0.242-0.484-0.345-0.674c-0.224-0.052-0.276,0.138-0.363,0.242c-0.604,0.777-1.053,1.623-1.399,2.539
			c-0.328,0.915-0.743,1.779-1.364,2.556c-0.173,0.207-0.242,0.501-0.328,0.76c-0.138,0.38-0.242,0.76-0.397,1.14
			c-0.035,0.069-0.173,0.086-0.259,0.138c-0.363-0.242,0.276-0.639-0.155-0.898c-0.449,0.553-0.674,1.157-0.691,1.779
			c0.052-0.035,0.155-0.086,0.225-0.173c0.138-0.19,0.224-0.414,0.363-0.604c0.052-0.069,0.173-0.086,0.276-0.121
			c0.035,0.069,0.104,0.138,0.104,0.207c-0.017,0.121-0.069,0.225-0.121,0.345c-0.967,1.986-1.917,3.955-2.884,5.941
			c-0.069,0.138-0.155,0.242-0.345,0.535c-0.086-0.674,0.086-1.105,0.276-1.52c0.19-0.432,0.518-0.812,0.518-1.312
			c0.069-0.069,0.155-0.138,0.19-0.225c0.017-0.035-0.086-0.104-0.121-0.155c-0.017,0.035-0.052,0.052-0.052,0.086
			c0,0.104,0.017,0.207,0.017,0.328c-0.069,0.017-0.19,0-0.224,0.052c-0.794,1.105-1.658,2.176-2.262,3.419
			c-0.414,0.863-0.881,1.727-1.347,2.573c-0.138,0.276-0.259,0.587-0.691,0.639c-0.294-0.76,0.086-1.502,0.052-2.28
			c-0.38-0.138-0.812-0.19-1.088-0.414c-0.225-0.19-0.294-0.604-0.449-1.002c-0.242,0.397-0.484,0.725-0.656,1.071
			c-0.674,1.382-1.312,2.78-1.969,4.162c-0.173,0.345-0.19,0.674-0.052,1.036c1.468,3.713,2.919,7.443,4.386,11.225
			c0.432,0.138,0.863,0.294,1.278,0.432c0.259-0.225,0.155-0.432,0.086-0.604c-0.259-0.639-0.535-1.261-0.846-1.882
			c-0.311-0.639-0.587-1.278-0.604-2.245c1.399,1.761,1.606,3.817,2.539,5.457c-0.052,0.449-0.432,0.207-0.639,0.466
			c0.121,0.501,0.311,1.019,0.725,1.416c0.121,0.121,0.363,0.104,0.674,0.19c0.604,1.295,1.243,2.677,1.882,4.076
			c0.276,0.017,0.501,0.035,0.743,0.035c0.432,0.587,0.432,0.587,0.518,1.33c-0.086,0.052-0.19,0.121-0.294,0.155
			s-0.225,0.035-0.328,0.052c-0.017,0.104-0.069,0.173-0.052,0.242c0.017,0.121,0.069,0.242,0.121,0.345
			c2.141,4.438,3.972,9.015,5.872,13.574c0.414,1.002,0.933,1.969,1.451,2.919c0.639,1.14,1.261,2.262,1.468,3.557
			c0.069,0.38,0.276,0.76,0.449,1.105c0.622,1.278,1.243,2.539,1.865,3.799c0.138,0.294,0.259,0.587,0.38,0.898
			c0.311,0.829,0.311,0.829,0.035,1.779c0.138,0.035,0.294,0.069,0.432,0.121c0.345,0.155,0.501,0.345,0.345,0.622
			c-0.242,0.432-0.19,0.812-0.017,1.261c0.19,0.484,0.276,1.002,0.397,1.485c0.294,0.311,0.587,0.639,0.881,0.967
			c0.656-0.086,0.743-0.052,0.967,0.363c0.242,0.449,0.328,0.898,0.155,1.399c-0.449,1.278-0.19,2.487,0.535,3.575
			c0.656,0.984,1.226,1.969,1.502,3.143c0.138,0.57,0.535,1.071,0.846,1.589c0.294,0.484,0.639,0.933,0.915,1.433
			c0.104,0.173,0.086,0.432,0.138,0.725c-0.794-0.276-0.933-1.261-1.831-1.278c-0.501,1.14,0.501,1.969,0.604,3.039
			c-0.155,0.138-0.311,0.294-0.501,0.432c-0.57,0.449-0.587,0.501-0.259,1.209c0.138,0.294,0.363,0.553,0.173,0.967
			c-0.984-0.604-1.658-1.589-2.608-2.245c-0.276,1.105-0.294,1.831,0,2.711c0.121,0.363,0.086,0.622-0.173,0.881
			c-0.138,0.138-0.276,0.276-0.38,0.363c-0.656-0.311-1.278-0.604-1.848-0.881c-0.38,0.224-0.691,0.397-1.002,0.587
			c-0.639,0.414-1.226,0.276-1.796-0.138c-0.276-0.207-0.57-0.432-0.846-0.656c-0.035-0.069-0.069-0.19-0.086-0.19
			c-0.086,0.017-0.19,0.069-0.276,0.104c0.069,0.035,0.121,0.104,0.19,0.121c0.069,0.017,0.138-0.035,0.207-0.069
			c0.052,0.311,0.086,0.622,0.155,1.053c-0.155,0.173-0.38,0.432-0.691,0.777c-0.259-0.414-0.449-0.743-0.656-1.088
			c-0.397,0.673-0.397,0.673-0.017,1.589c-0.035,0.104-0.069,0.225-0.121,0.311c-0.587,0.881-0.57,1.831-0.259,2.798
			c0.155,0.466,0.345,0.915,0.501,1.364c0.38,1.071,0.363,1.071-0.121,2.072c0.328,1.088,0.656,2.21,0.984,3.368
			c-0.207,0.225-0.38,0.414-0.604,0.656c0.069,0.518,0.155,1.053,0.225,1.623c-0.57,0.19-0.881-0.155-1.174-0.466
			c-0.397-0.397-0.76-0.829-1.209-1.33c0.086-0.294,0.19-0.673,0.294-1.071c-0.311-0.449-0.604-0.898-1.019-1.52
			c-0.017,1.157,0.155,2.124,0.449,3.057c0.345,1.071,0.725,2.141,1.088,3.212c0.225,0.691,0.432,1.382,0.604,2.09
			c0.104,0.432,0.104,0.863,0.173,1.33c-0.345-0.035-0.276-0.311-0.345-0.466c-0.553-1.554-1.071-3.126-1.658-4.68
			c-0.449-1.174-0.984-2.297-1.502-3.437c-0.138-0.294-0.328-0.553-0.501-0.829c-0.743,0-1.019,0.432-1.123,1.122
			c0.207,0.086,0.432,0.173,0.622,0.276c0.294,0.155,0.328,0.328,0.069,0.639c-0.19,0.207-0.225,0.432-0.173,0.656
			c0.121,0.466,0.242,0.933,0.414,1.382c0.259,0.673,0.604,1.33,0.863,2.003c0.19,0.484,0.466,0.95,0.242,1.572
			c-0.19-0.104-0.414-0.138-0.518-0.276c-0.225-0.276-0.397-0.604-0.587-0.915c-1.865-3.229-3.281-6.666-4.594-10.154
			c-0.173-0.449-0.345-0.898-0.501-1.364c-0.138-0.38-0.38-0.604-0.777-0.674c-0.276,0.19-0.155,0.414-0.086,0.639
			c1.502,3.799,2.78,7.668,3.937,11.588c0.19,0.622,0.345,1.243,0.518,1.865c0.069,0.259,0.121,0.535,0.121,0.915
			c-0.38-0.138-0.656-0.242-1.002-0.363c-0.069,0.225-0.19,0.432-0.207,0.656c-0.035,0.363-0.017,0.725-0.017,1.14
			c-0.259,0-0.432,0-0.674,0c0,0.276,0,0.535,0,0.794c-0.086,0.035-0.19,0.104-0.207,0.069c-0.311-0.259-0.587-0.518-0.881-0.777
			c-0.035,0-0.121-0.017-0.121,0c-0.086,0.259-0.173,0.535-0.259,0.76c-0.276,0.138-0.432,0-0.535-0.173
			c-0.155-0.276-0.259-0.587-0.363-0.881c-0.294-0.76-0.535-1.52-0.863-2.262c-0.311-0.708-0.794-1.295-1.52-1.796
			c-0.345,0.708-1.261,0.933-1.123,1.813c-0.397,0.069-0.449-0.155-0.518-0.328c-0.915-2.729-2.159-5.319-3.316-7.944
			c-0.812-1.848-1.589-3.713-2.176-5.647c-0.104-0.345-0.173-0.691-0.276-1.105c0.432,0,0.777,0,1.14,0
			c-0.104-0.846-0.501-1.485-0.898-2.107c-0.484,0.052-0.328,0.432-0.414,0.656c-0.121,0.259-0.276,0.363-0.484,0.328
			c-0.242-0.57-0.466-1.071-0.691-1.572c-0.57-1.243-1.209-2.47-1.71-3.747c-2.901-7.15-5.803-14.299-8.669-21.466
			c-15.991-39.944-31.966-79.888-47.94-119.832c-0.225-0.553-0.466-1.088-0.76-1.796c-0.242,0.449-0.414,0.76-0.553,1.071
			c-1.295,2.919-2.573,5.837-3.886,8.756c-0.881,1.951-1.796,3.886-2.677,5.837c-0.587,1.33-1.157,2.677-1.692,4.024
			c-1.399,3.454-2.849,6.873-4.68,10.103c-0.414,0.725-0.674,1.468-0.622,2.297c0.035,0.553-0.155,1.036-0.432,1.485
			c-0.104,0.173-0.207,0.345-0.328,0.501c-1.572,2.124-2.815,4.438-4.007,6.77c-1.554,3.022-3.126,6.027-4.369,9.187
			c-0.19,0.484-0.397,0.967-0.57,1.468c-0.207,0.622-0.449,1.192-0.984,1.641c-0.207,0.155-0.276,0.466-0.432,0.743
			c-0.743,0.328-1.554,0.38-2.331,0.104c-0.691-0.242-1.364-0.518-2.003-0.846c-2.038-1.088-4.041-2.228-6.079-3.281
			c-2.47-1.295-4.905-2.659-7.236-4.196c-2.021-1.33-4.093-2.59-6.131-3.903c-2.072-1.33-4.11-2.729-6.027-4.283
			c-0.155-0.121-0.311-0.259-0.484-0.38c-0.466-0.345-0.622-0.76-0.518-1.364c0.294-1.727,0.743-3.402,1.537-4.956
			c0.656-1.295,1.416-2.539,2.159-3.782c0.881-1.502,1.865-2.936,2.677-4.473c4.076-7.633,8.099-15.283,12.123-22.934
			c2.003-3.834,3.886-7.719,5.63-11.691c0.294-0.674,0.604-1.33,0.933-1.969c0.518-1.019,1.123-1.969,1.917-2.78
			c0.397-0.397,0.622-0.829,0.553-1.399c-0.035-0.224,0.052-0.466,0.086-0.76c0.432-0.035,0.829-0.052,1.174-0.086
			c0.225-0.207,0.155-0.397,0.035-0.57c-0.155-0.225-0.345-0.432-0.57-0.725c0.311-0.138,0.535-0.242,0.829-0.363
			c0.276,0.345,0.501,0.656,0.777,1.002c-0.121,0.259-0.242,0.501-0.363,0.76c-0.587,1.243-1.192,2.47-1.761,3.73
			c-0.121,0.242-0.155,0.535-0.207,0.812c-0.035,0.259,0.138,0.449,0.345,0.604c0.19,0.138,0.57,0.035,0.587-0.19
			c0.017-0.276,0-0.57-0.069-0.829c-0.138-0.466-0.086-0.829,0.19-1.243c0.397-0.604,0.708-1.261,1.088-1.969
			c0.535-0.035,1.123-0.069,1.71-0.104c-0.311-0.38-0.242-0.829-0.225-1.312c1.088-0.587,1.623-1.606,1.831-2.78
			c0.57-0.121,0.863,0.276,1.295,0.484c-0.035,0.311-0.086,0.622-0.121,0.95c-0.035,0.518-0.242,0.898-0.725,1.174
			c-0.397,0.225-0.363,0.276-0.104,0.95c0.138-0.276,0.242-0.518,0.397-0.725c0.138-0.19,0.38-0.311,0.518-0.518
			c0.363-0.535,0.725-1.071,1.036-1.623c0.294-0.535,0.501-1.105,0.76-1.641c0.19-0.397,0.363-0.812,0.656-1.105
			c0.276,0.017,0.259,0.19,0.259,0.345c0,0.777-0.207,1.485-0.656,2.159c-0.466,0.691-0.846,1.468-1.192,2.245
			c-0.794,1.727-1.572,3.454-2.297,5.215c-0.501,1.192-0.881,2.418-1.312,3.644c-0.069,0.173-0.052,0.397-0.086,0.794
			c0.242-0.311,0.38-0.449,0.466-0.604c0.363-0.725,0.725-1.451,1.071-2.176c0.242-0.501,0.466-1.036,0.725-1.537
			c0.242-0.449,0.38-1.071,1.192-0.656c0-0.449-0.017-0.725,0-1.002c0.069-1.002,0.311-1.917,1.157-2.556
			c0.466-0.345,0.656-0.812,0.725-1.347c0.121-0.76,0.38-1.382,1.157-1.71c0.432-0.19,0.449-0.639,0.484-1.053
			c0.052-0.622,0.432-0.933,0.984-1.088c0.069-0.017,0.155,0.017,0.225,0.035c0.345,1.019-0.104,1.969-0.259,2.936
			c0.38,0.242,0.674,0.173,0.915-0.086c0.138-0.138,0.225-0.328,0.328-0.501c0.345-0.587,0.674-1.192,1.036-1.779
			c0.38-0.587,0.725-1.174,0.846-1.865c0.086-0.466,0.311-0.794,0.725-1.053c0.397-0.242,0.76-0.553,1.243-0.915
			c-0.104,0.449-0.19,0.794-0.294,1.261c0.259-0.052,0.397-0.069,0.535-0.086c0.104-0.017,0.225-0.052,0.328-0.069
			c0.052,0.086,0.138,0.155,0.138,0.207c0.017,0.432-0.225,0.76-0.484,1.071c-0.173,0.207-0.345,0.414-0.518,0.622
			c0.363,0.207,0.518-0.017,0.674-0.19c0.276-0.294,0.501-0.622,0.898-0.777c0.466-0.19,0.466-0.708,0.674-1.123
			c-0.501-1.675-1.295-3.195-2.28-4.645c-0.294-0.432-0.587-0.863-0.846-1.33c-0.553-0.984-0.777-2.038-0.674-3.16
			c0.052-0.57,0.207-0.777,0.725-0.777c2.159,0,4.007-0.881,5.768-1.969c3.851-2.366,7.719-4.715,11.553-7.132
			c2.21-1.382,4.542-2.47,7.063-3.109c1.053-0.276,2.09-0.622,3.143-0.898c0.432-0.121,0.863-0.207,1.312-0.207
			c1.261,0,2.141,0.743,2.383,1.986c0.052,0.242,0.052,0.484,0.052,0.725c-0.052,1.347,0.242,2.659,0.656,3.92
			c1.226,3.678,2.47,7.357,3.713,11.018c0.155,0.449,0.38,0.881,0.587,1.33c0.38-0.017,0.691-0.035,0.984-0.052
			c0.086,0.069,0.155,0.121,0.19,0.19c1.019,2.159,2.055,4.3,3.057,6.459c0.086,0.173,0.086,0.38,0.138,0.604
			c-0.328,0.035-0.604,0.052-0.881,0.069c0,0.155-0.035,0.276,0,0.38c1.157,3.782,2.521,7.512,3.886,11.225
			c0.19,0.535,0.414,1.071,0.484,1.623c0.121,1.002,0.518,1.761,1.485,2.193c0.121,0.846,0.242,1.641,0.363,2.521
			c0.846,0.639,1.33,1.589,1.675,2.659c0.19,0.57,0.484,1.105,0.725,1.658c0.414,0.915,0.812,1.848,1.226,2.763
			c0.173,0.38,0.173,0.743,0.069,1.174c-0.38,1.641,0.363,3.817,1.71,4.991c0.069-0.311,0.121-0.587,0.19-0.881
			c0.967,1.278,1.969,3.713,2.176,5.233c-0.794-0.363-0.535-1.416-1.261-1.882c-0.224,0.829,0,1.52,0.449,2.09
			c0.328,0.432,0.501,0.863,0.553,1.416c0.069,0.604,0.276,1.192,0.777,1.589c0.104,0.052,0.207,0.086,0.294,0.138
			c-0.017-0.138-0.017-0.276-0.035-0.432c-0.052-0.345-0.121-0.691-0.19-1.14 M149.568,347.67c-0.535,0.967-0.518,0.967-0.086,1.831
			c0.155,0.311,0.276,0.656,0.38,1.002c0.19,0.656,0.674,0.933,1.433,0.794C150.293,348.447,150.259,348.361,149.568,347.67z
			 M145.458,339.899c0.259-0.863-0.225-1.433-0.76-2.193C144.542,338.724,145.13,339.277,145.458,339.899z M126.496,206.544
			c-0.086-1.105-0.121-1.192-0.812-1.52C125.805,205.646,125.857,206.234,126.496,206.544z M153.712,358.653
			c0.294,0.086,0.414,0.138,0.518,0.138c0.086-0.017,0.173-0.104,0.259-0.155c-0.086-0.052-0.173-0.138-0.259-0.138
			C154.11,358.481,154.006,358.55,153.712,358.653z M156.407,345.96c-0.052,0.017-0.104,0.035-0.173,0.052
			c0.052,0.155,0.121,0.311,0.173,0.466c0.052-0.017,0.104-0.035,0.155-0.052C156.51,346.271,156.458,346.116,156.407,345.96z
			 M161.449,257.265c0.035-0.035,0.069-0.069,0.069-0.086c-0.017-0.069-0.052-0.138-0.069-0.207
			c-0.035,0.069-0.069,0.138-0.069,0.207C161.363,257.196,161.415,257.23,161.449,257.265z"/>
		<path style="fill:#fff;" d="M362.914,195.907c-0.57,0.311-0.794,0.898-1.122,1.399c-0.449,0.674-0.846,1.382-1.278,2.055
			c-0.138,0.225-0.345,0.397-0.639,0.518c0.173-0.432,0.311-0.898,0.553-1.312c0.622-1.123,1.261-2.245,1.951-3.35
			c0.639-1.019,1.364-2.003,2.038-3.005c0.242-0.363,0.484-0.743,0.76-1.174c-0.225-0.225-0.432-0.449-0.639-0.656
			c0.518-1.382,0.656-1.537,1.986-2.228c-0.069-0.829,0.345-1.502,0.846-2.141c0.242-0.311,0.432-0.674,0.639-1.036
			c1.036-1.831,2.055-3.661,3.108-5.474c4.404-7.529,8.842-15.042,13.263-22.588c0.76-1.295,1.433-2.625,2.141-3.937
			c1.105-2.021,2.21-4.041,3.35-6.044c0.587-1.019,1.295-1.951,1.917-2.936c0.363-0.57,0.76-1.157,1.019-1.779
			c0.846-2.072,2.055-3.937,3.471-5.664c0.155-0.19,0.294-0.397,0.449-0.57c0.466-0.484,0.673-1.036,0.673-1.727
			c-0.017-1.278,0.794-1.934,2.038-1.744c0.484,0.069,0.95,0.294,1.416,0.259c0.484-0.017,0.881,0.328,1.364,0.242
			c0.155-0.035,0.345,0.155,0.518,0.259c1.071,0.708,2.124,1.485,3.229,2.124c2.245,1.295,4.421,2.677,6.459,4.3
			c0.449,0.363,1.019,0.587,1.554,0.846c0.363,0.19,0.76,0.294,1.105,0.501c0.984,0.622,1.951,1.278,3.005,1.969
			c-0.294,0.225-0.535,0.397-0.812,0.604c0.743,0.535,1.468,0.829,2.297,0.604c0.535-0.138,0.95,0.035,1.33,0.38
			c0.173,0.155,0.345,0.328,0.535,0.484c0.484,0.38,1.019,0.656,1.606,0.743c0.052,0.449,0.052,0.484-0.294,0.432
			c-0.414-0.069-0.553,0.225-0.794,0.535c0.328,0.466,0.639,0.984,0.604,1.675c-0.363,0.311-0.76,0.639-1.157,0.984
			c-0.121,0.104-0.19,0.259,0.017,0.38l0.017-0.017c-0.052-0.035-0.155-0.138-0.173-0.121c-1.122,0.984-1.865,2.176-2.176,3.661
			c0.812,0.345,1.744-0.225,2.383,0.656c-0.155,0.224-0.328,0.466-0.484,0.743c-0.138,0.242-0.225,0.518-0.345,0.777
			c-0.052,0.104-0.121,0.242-0.224,0.276c-0.57,0.19-0.535,0.76-0.777,1.192c-0.311,0.138-0.622,0.276-0.933,0.414
			c0.104,1.053,0.104,1.053-0.604,1.865c-0.397,0.449-0.708,0.881-0.484,1.572c-0.501,0.397-0.846,0.898-1.157,1.485
			c-0.898,1.675-1.882,3.298-2.867,4.922c-0.345,0.587-0.812,1.088-1.209,1.623c-0.311-0.052-0.553-0.086-0.829-0.138
			c-0.414,0.449-0.553,1.036-0.881,1.675c0.363,0.017,0.587,0.052,0.794,0.052c2.349-0.121,4.68-0.242,7.029-0.38
			c1.727-0.086,3.471-0.19,5.198-0.276c3.955-0.19,7.909-0.38,11.864-0.587c3.747-0.19,7.512-0.414,11.26-0.604
			c1.416-0.069,2.832-0.052,4.248-0.104c0.518-0.017,1.053-0.069,1.572-0.121c0.881-0.086,1.761-0.19,2.677,0.052
			c0.069,0.311,0.138,0.604,0.207,0.915c0.121,0.052,0.225,0.138,0.345,0.138c0.812-0.017,1.606-0.052,2.418-0.086
			c0.276,0,0.57,0,0.846,0.017c0.069,0,0.121,0.086,0.173,0.138c-0.518,0.535-1.399,0.19-1.934,0.743
			c0.242,0.069,0.449,0.138,0.743,0.225c-0.449,0.294-0.846,0.276-1.243,0.345c-0.345,0.052-0.708,0.138-1.036,0.259
			c-0.276,0.121-0.518,0.121-0.812,0.069c-1.088-0.19-1.278-0.138-2.297,0.622c0.138,0.294,0.276,0.604,0.449,0.984
			c-0.19,0.086-0.363,0.207-0.535,0.242c-0.76,0.138-1.52,0.225-2.262,0.363c-0.104,0.017-0.19,0.104-0.311,0.19
			c0.19,0.38,0.535,0.363,0.829,0.345c0.933-0.052,1.848-0.138,2.78-0.224c0.725-0.069,1.451-0.155,2.176-0.225
			c0.225-0.017,0.466,0,0.76,0.173c-0.777,0.708-1.623,1.105-2.66,1.589c0.414,0.138,0.674,0.155,0.846,0.276
			c0.19,0.138,0.276,0.38,0.432,0.57c0.052,0.069,0.121,0.121,0.19,0.138c0.276,0.035,0.553,0.052,0.933,0.086
			c-0.017-0.328-0.052-0.57-0.069-0.898c0.155-0.069,0.311-0.138,0.466-0.19c0.328,0.397,0.622,0.76,0.95,1.157
			c-0.069,0.207-0.363,0.121-0.57,0.155c-0.311,0.052-0.656,0.017-0.95,0.086c-0.173,0.035-0.397,0.173-0.449,0.328
			c-0.104,0.276,0.138,0.414,0.363,0.518c0.242,0.121,0.466,0.294,0.76,0.466c0.173-0.086,0.38-0.19,0.604-0.276
			c0.553-0.224,0.933-0.138,1.278,0.311c0.138,0.19,0.225,0.432,0.363,0.622c0.155,0.225,0.363,0.414,0.518,0.587
			c0.155-0.035,0.242-0.035,0.294-0.086c0.518-0.432,1.088-0.743,1.779-0.604c0.846,0.155,1.658,0.414,2.297,1.002
			c0.449,0.414,0.622,0.933,0.501,1.537c-0.052,0.276-0.138,0.553-0.224,0.898c0.155,0.225,0.328,0.501,0.535,0.743
			c0.95,1.157,1.848,2.349,2.884,3.437c1.122,1.192,1.502,2.573,1.226,4.127c-0.242,1.312-0.604,2.59-1.036,3.851
			c-0.294,0.863-0.812,1.658-1.261,2.556c0.121,0.345,0.553,0.294,0.863,0.38c0.414,0.104,0.898,0.052,1.295,0.449
			c-0.035,0.155-0.052,0.363-0.138,0.518c-1.917,3.782-3.834,7.564-5.768,11.346c-0.086,0.155-0.225,0.294-0.345,0.484
			c-0.294-0.484,0.017-1.071-0.535-1.433c-0.155,0.155-0.363,0.294-0.484,0.484c-0.518,0.812-1.019,1.641-1.537,2.47
			c-0.674,1.053-1.312,2.124-2.021,3.178c-0.708,1.036-1.537,1.969-2.47,2.832c-0.294,0.276-0.553,0.587-0.76,0.915
			c-1.14,1.813-2.245,3.644-3.368,5.457c-0.242,0.38-0.466,0.76-0.725,1.122c-1.71,2.314-2.659,4.974-3.454,7.702
			c-0.069,0.259-0.121,0.57-0.086,0.829c0.086,0.484-0.086,0.863-0.311,1.261c-1.433,2.677-2.849,5.336-4.283,8.013
			c-0.104,0.207-0.259,0.38-0.38,0.57c-0.466-0.069-0.294-0.466-0.466-0.691c-0.104,0.035-0.242,0.035-0.311,0.104
			c-0.794,0.967-1.416,2.055-2.003,3.178c-1.865,3.592-3.765,7.15-5.561,10.759c-2.694,5.371-5.336,10.793-8.013,16.181
			c-0.19,0.397-0.466,0.76-0.743,1.105c-0.242,0.311-0.553,0.587-0.673,1.019c0.207,0.19,0.414,0.363,0.673,0.587
			c-0.121,0.242-0.224,0.484-0.363,0.725c-0.915,1.658-1.848,3.316-2.763,4.974c-0.138,0.242-0.207,0.518-0.328,0.794
			c0.553,0.225,0.967-0.104,1.468-0.104c0.035-0.466,0.052-0.863,0.069-1.053c0.553-0.777,1.002-1.399,1.416-2.038
			c0.363-0.57,0.708-1.174,1.433-1.658c-0.052,0.276-0.052,0.414-0.104,0.535c-0.276,0.933-0.553,1.848-0.846,2.78
			c-0.207,0.691-0.414,1.399-0.656,2.072c-0.121,0.328-0.345,0.639-0.535,0.95c-0.259,0.414-0.604,0.639-1.122,0.57
			c-0.155-0.017-0.311,0-0.535,0c-0.414,1.451-1.14,2.746-1.865,4.041c-0.104-0.104-0.207-0.19-0.311-0.294
			c0.035-0.225,0.069-0.449,0.121-0.725c-0.639,0.294-0.708,0.397-0.967,1.692c0.104,0,0.207,0,0.294,0c0.069,0,0.138,0,0.259,0
			c0.017,0.086,0.104,0.207,0.086,0.294c-0.276,1.364-0.863,2.608-1.537,3.799c-0.052,0.086-0.19,0.121-0.294,0.173
			c-0.035,0.017-0.086,0-0.138-0.017c-0.294-1.036,0.294-1.934,0.518-2.867c-0.311-0.155-0.414,0.086-0.518,0.207
			c-0.363,0.484-0.743,0.967-1.019,1.502c-0.432,0.863-0.76,1.762-1.14,2.659c0.328,0.138,0.466-0.138,0.673-0.19
			c0.19-0.035,0.397-0.052,0.656-0.104c0.19-0.276,0.397-0.604,0.639-0.984c0.276,0.95,0.207,1.14-0.984,3.212
			c-0.535-0.173-0.225-0.708-0.466-1.088c-0.104,0.104-0.259,0.173-0.311,0.294c-0.829,1.848-1.641,3.678-2.452,5.526
			c-0.052,0.104-0.052,0.225-0.121,0.518c0.259-0.259,0.466-0.363,0.553-0.535c0.328-0.639,0.639-1.295,0.933-1.969
			c0.311-0.708,0.587-1.416,1.261-1.882L416,297.261c0.276,0.535,0.052,1.036-0.19,1.485c-0.38,0.708-0.553,1.485-0.967,2.176
			c-0.397,0.639-0.656,1.382-1.002,2.072c-0.363,0.725-0.743,1.433-1.122,2.141c-0.449,0.846-0.898,1.71-1.382,2.556
			c-0.518,0.915-1.036,1.831-1.606,2.694c-0.328,0.484-0.501,1.002-0.656,1.554c-0.155,0.57-0.38,1.053-0.881,1.399
			c-0.432,0.311-0.622,0.743-0.622,1.261c0,1.105-0.449,2.038-1.036,2.936c-0.294,0.449-0.622,0.846-0.915,1.295
			c-0.397,0.604-0.76,1.226-1.14,1.865c-0.19,0.311-0.328,0.656-0.518,0.967c-3.005,4.939-5.44,10.189-8.324,15.197
			c-0.449,0.777-0.777,1.589-0.967,2.47c-0.086,0.38-0.311,0.743-0.518,1.088c-1.261,2.072-2.314,4.248-3.316,6.459
			c-0.086,0.173-0.138,0.363-0.294,0.829c0.812-0.915,1.14-1.831,1.71-2.521c0.397-0.173,0.743-0.104,1.088,0.035
			c0.639,0.276,0.777,0.898,0.38,1.485c-0.069,0.104-0.155,0.19-0.224,0.294c-0.294,0.432-0.38,0.881-0.069,1.364
			c0.086,0.138,0.155,0.276,0.225,0.414c-0.121,0.363-0.242,0.708-0.397,1.105c0.155,0.069,0.294,0.121,0.414,0.173
			c0.155,0.052,0.294,0.086,0.518,0.155c-0.035,0.259-0.017,0.518-0.121,0.691c-0.38,0.673-0.794,1.312-1.209,1.951
			c-0.363,0.535-0.777,1.036-1.105,1.589c-0.207,0.345-0.397,0.725-0.466,1.105c-0.104,0.518-0.328,0.898-0.76,1.174
			c-0.242,0.155-0.414,0.397-0.397,0.708c0.035,0.743-0.363,1.312-0.76,1.865c-1.831,2.573-3.627,5.164-5.492,7.702
			c-0.656,0.915-1.192,1.831-1.071,3.005c-0.691,0.466-1.485,0.501-2.228,0.57c-0.933,0.086-1.848,0.225-2.746,0.604
			c-0.19-0.138-0.38-0.276-0.57-0.432c-0.535-0.449-1.174-0.708-1.848-0.846c-1.226-0.259-2.4-0.691-3.557-1.174
			c-3.333-1.364-6.649-2.729-10.068-3.868c-1.468-0.501-2.849-1.157-3.972-2.262c-0.414-0.414-0.933-0.414-1.502-0.484
			c-0.017-0.276-0.069-0.501-0.052-0.725c0.052-0.812,0.345-1.572,0.674-2.314c0.259-0.587,0.553-1.174,0.777-1.779
			c0.207-0.553,0.604-1.105,0.017-1.675c0.432-0.225,0.725-0.397,1.088-0.604c-0.76-0.19-1.261,0.035-1.416,0.553
			c-0.363,1.174-1.312,3.057-2.021,4.024c-0.397-0.328-0.777-0.656-1.243-1.053c0.345-0.259,0.622-0.466,0.898-0.673
			c-0.035-1.295-0.017-1.312,0.639-2.504c0.207-0.38,0.414-0.794,0.553-1.209c0.086-0.242,0.017-0.535,0.017-0.881
			c-0.397,0.069-0.743,0.138-1.088,0.19c0.276,1.036,0.276,1.036-0.259,1.934c-0.207,0.345-0.397,0.691-0.622,1.088
			c-0.311-0.017-0.622-0.035-1.019-0.069c0.017,0.259-0.017,0.501,0.035,0.708c0.104,0.38,0.432,0.691,0.328,1.209
			c-0.207,0.104-0.449,0.242-0.691,0.363c-0.708,0.397-1.416,0.777-1.658,1.641c-0.035,0.121-0.207,0.207-0.38,0.38
			c-0.121-0.294-0.207-0.484-0.311-0.76c-0.225,0.035-0.449,0.086-0.691,0.086c-0.639,0.017-0.898-0.38-0.604-0.915
			c0.121-0.207,0.259-0.414,0.397-0.604c0.121-0.155,0.294-0.276,0.449-0.432c-0.035-0.276-0.052-0.553-0.086-0.863
			c0.19-0.155,0.397-0.328,0.57-0.501c-0.19-0.708-0.829-0.57-1.312-0.743c-0.086-0.881,0.432-1.347,1.019-1.692
			c0.76-3.54,2.159-6.735,4.162-9.792c-0.276-0.812,0.052-1.572,0.449-2.349c1.261-2.383,2.487-4.801,3.817-7.167
			c4.49-8.048,8.686-16.25,12.935-24.419c16.579-31.948,33.157-63.914,49.736-95.862c2.124-4.093,4.196-8.203,5.975-12.451
			c0.38-0.898,0.863-1.744,1.278-2.608c0.363-0.76,0.691-1.537,1.019-2.331c0.069-0.173,0.069-0.38,0.121-0.622
			c-0.294,0-0.535-0.017-0.777,0c-3.091,0.276-6.2,0.57-9.291,0.846c-3.178,0.276-6.355,0.535-9.55,0.829
			c-3.143,0.276-6.286,0.57-9.412,0.863c-1.934,0.173-3.868,0.363-5.803,0.501c-0.484,0.035-0.846,0.207-1.105,0.604
			c-0.328,0.501-0.708,0.984-1.019,1.502c-0.898,1.537-1.71,3.108-2.245,4.818c-0.397,1.278-0.967,2.487-1.641,3.644
			c-0.725,1.261-1.485,2.504-2.245,3.747c-0.069,0.121-0.19,0.225-0.397,0.466c-0.121-0.225-0.225-0.38-0.311-0.553
			c-0.518,0.294-0.656,0.76-0.863,1.192c-0.276,0.587-0.587,1.14-0.881,1.727c-0.242,0.19-0.414,0.432-0.466,0.812
			c0.449-0.052,0.587-0.311,0.708-0.587c0.138,0.035,0.328,0,0.328,0.242c0,0.086-0.017,0.173-0.052,0.225
			c-0.656,0.76-0.846,1.813-1.692,2.573c-0.155,0.017-0.432,0.069-0.674,0.104c-0.553,1.192-0.622,1.226-1.848,1.088
			c-0.155-0.017-0.311-0.035-0.501-0.052c-0.276,0.294-0.535,0.587-0.846,0.933c-0.242-0.069-0.501-0.138-0.846-0.242
			c-0.207,0.173-0.466,0.397-0.708,0.604c-0.121,0-0.207,0.035-0.276,0c-0.95-0.466-1.796-1.088-2.504-1.882
			c-0.155-0.173-0.294-0.38-0.38-0.518c-0.794,0.155-0.691,1.019-1.382,1.209c0-0.259-0.069-0.484,0.017-0.674
			c0.155-0.363,0.38-0.708,0.57-1.036c-0.207-0.242-0.397-0.19-0.535-0.035c-0.259,0.294-0.484,0.639-0.743,0.95
			c-0.104,0.121-0.242,0.19-0.38,0.276c-0.017,0.017-0.069-0.017-0.138-0.035c-0.086-0.466,0.328-0.794,0.397-1.278
			c-0.311-0.345-0.656-0.725-1.071-1.192c-0.363,0.069-0.898,0.311-1.174-0.259c-0.535-0.069-1.036,0.708-1.554,0.052
			c0.052-0.121,0.086-0.225,0.155-0.397c-0.294-0.155-0.587-0.328-0.881-0.484c-0.104,0.052-0.19,0.069-0.225,0.121
			c-0.225,0.38-0.432,0.777-0.674,1.14c-0.138,0.19-0.345,0.311-0.535,0.466c-0.017,0.017-0.086,0.017-0.121-0.017
			c-0.052-0.052-0.138-0.138-0.121-0.173c0.104-0.294,0.242-0.587,0.38-0.915c-1.036-0.225-0.432-1.468-1.261-1.796
			c0.345-0.777,1.105-1.261,0.984-2.124c-1.364,0.121-1.105,0.276-1.831-0.691c-0.138,0.225-0.259,0.414-0.397,0.604
			c-0.121,0.155-0.259,0.294-0.414,0.484c-0.104-0.881-0.086-0.95,0.38-1.813c-0.104-0.432-0.466-0.639-0.777-0.898
			c-0.898-0.76-1.606-1.606-1.451-2.884c0.017-0.086-0.121-0.173-0.173-0.276c-0.052-0.104-0.155-0.225-0.138-0.294
			c0.173-0.518,0.311-1.071,0.898-1.399c-0.104,0.414-0.19,0.76-0.276,1.071c0.207,0.207,0.414,0.207,0.553,0.017
			c0.259-0.363,0.518-0.725,0.708-1.123c0.311-0.656,0.604-1.33,0.863-2.003c0.225-0.604,0.414-1.209,0.984-1.623
			c0.259-0.19,0.173-0.397-0.207-0.777c-1.157,0.345-1.468,1.554-2.228,2.228c-0.484-0.069-0.933-0.138-1.399-0.19
			c0.052-0.794,0.294-1.278,1.347-2.521c-0.052,0.345-0.086,0.553-0.121,0.76c-0.035,0.224-0.086,0.449-0.138,0.725
			c0.587,0.155,0.967-0.104,1.157-0.501c0.38-0.829,0.673-1.71,1.019-2.642c-0.225-0.069-0.397-0.104-0.57-0.173
			c-0.138-0.069-0.276-0.155-0.432-0.259c0.311-0.449,0.673-0.829,0.898-1.278c0.207-0.414,0.294-0.915,0.449-1.416
			c-0.38-0.242-0.708-0.466-1.002-0.674c-0.466,0.138-0.639,0.501-0.673,0.829c-0.086,0.656-0.311,1.123-0.967,1.399
			c-0.345,0.138-0.38,0.501-0.173,0.863c0.242-0.035,0.501-0.052,0.812-0.086c-0.052,0.553-0.328,0.863-0.674,1.174
			c-0.449-0.052-0.155-0.622-0.604-0.743c-0.069,0.069-0.207,0.138-0.259,0.259c-0.207,0.432-0.38,0.881-0.57,1.347
			c-0.19,0.484-0.328,0.984-0.898,1.209c-0.19,0.086-0.294,0.363-0.449,0.553c-0.173,0.225-0.345,0.432-0.622,0.604
			c0.052-0.173,0.069-0.363,0.155-0.518c0.518-0.95,1.002-1.934,1.589-2.849c0.794-1.226,1.451-2.504,2.176-3.765
			c0.121-0.207,0.155-0.449,0.225-0.674c0.017-0.104,0.052-0.19,0.069-0.294C363.035,195.803,362.966,195.855,362.914,195.907z
			 M412.374,303.599c-0.812,1.019-1.226,2.21-1.744,3.402c0.121,0,0.19,0.017,0.19,0.017c0.518-0.95,1.036-1.9,1.537-2.867
			C412.443,303.996,412.374,303.771,412.374,303.599c0.017,0,0.052,0.035,0.086,0.035c0.017,0,0.052-0.017,0.086-0.035
			C412.494,303.616,412.443,303.599,412.374,303.599z M386.487,328.639c0.397-0.19,0.76-0.345,1.105-0.535
			c1.502-0.794,2.539-1.986,2.901-3.678c0.604-2.901-0.639-5.008-3.022-6.027c-0.363-0.155-0.76-0.276-1.14-0.397
			c-1.053-0.294-2.159-0.363-3.247-0.363c-3.143-0.017-6.303,0-9.446,0c-0.276,0-0.553,0.035-0.933,0.052
			c-1.468,6.942-2.953,13.867-4.404,20.844c0.933,0.138,1.779,0.052,2.625,0.069c0.881,0.017,1.779,0.017,2.659,0
			c0.846-0.017,1.675,0.052,2.539-0.052c0.069-0.259,0.121-0.449,0.155-0.639c0.414-2.021,0.829-4.041,1.243-6.044
			c0.052-0.259,0.173-0.518,0.259-0.794c0.38,0,0.708,0,1.019,0c0.155,0,0.328,0,0.484,0.017c0.967,0.104,1.364,0.553,1.347,1.502
			c-0.017,0.363-0.104,0.725-0.155,1.071c-0.242,1.399-0.604,2.763-0.587,4.196c0,0.224,0.069,0.449,0.104,0.656
			c1.779,0.155,6.597,0.121,7.409-0.052c0.294-1.589,0.604-3.178,0.863-4.766c0.086-0.518,0.138-1.036,0.121-1.572
			c-0.035-1.312-0.449-2.452-1.623-3.212C386.677,328.881,386.625,328.777,386.487,328.639z M378.975,220.671
			c-0.276-0.052-0.449-0.104-0.639-0.121c-0.19-0.017-0.397,0.017-0.604,0.017c-0.242,0-0.484,0.017-0.725,0
			c-0.173,0-0.345-0.052-0.518-0.069c0.587,0.553,1.364,0.553,2.021,0.984C378.681,221.206,378.802,220.982,378.975,220.671z
			 M418.746,155.669c-0.242-0.587-0.294-1.019-0.691-1.416c-0.104,0.242-0.276,0.432-0.242,0.57
			C417.9,155.22,418.124,155.531,418.746,155.669z M415.396,160.314c0.397-0.397,0.449-0.725,0.294-1.123
			C415.292,159.434,415.413,159.813,415.396,160.314z M362.102,208.081c-0.035,0.052-0.069,0.104-0.069,0.155
			c0,0.017,0.052,0.052,0.069,0.086c0.035-0.052,0.069-0.104,0.069-0.155C362.189,208.151,362.12,208.116,362.102,208.081z"/>
		<path style="fill:#fff;" d="M317.219,193.42c-0.397,0.345-0.898,0.345-1.364,0.432c-0.604,0.104-1.192,0.242-1.589,0.846
			c-0.294-0.207-0.553-0.363-0.829-0.553c-0.449,0.553-0.881,1.088-1.364,1.675c0.622,0.345,1.174,0.173,1.744,0.017
			c0.19-0.052,0.38-0.173,0.535-0.276c0.777-0.57,1.623-0.674,2.539-0.449c0.19,0.052,0.38,0.069,0.639,0.104
			c0.035-0.276,0.035-0.501,0.104-0.708c0.069-0.19,0.225-0.345,0.294-0.518c0.069-0.225,0.086-0.466,0.138-0.725
			c0.898-0.225,1.502,0.397,2.21,0.708c0.432-0.587,0.898-0.984,1.727-0.812c-0.259,0.691-0.656,1.192-0.984,1.744
			c-0.328,0.553-0.673,1.105-1.002,1.658c-0.328,0.553-0.674,1.105-1.002,1.658c0.19,0.121,0.311,0.207,0.501,0.345
			c-0.138,0.224-0.276,0.449-0.449,0.708c0.017,0.086,0,0.225,0.069,0.311c0.639,0.933,0.518,1.831-0.086,2.711
			c-1.848,2.711-3.229,5.682-4.68,8.617c-0.967,1.951-2.124,3.817-3.195,5.699c-0.535,0.95-1.105,1.865-1.658,2.798
			c-0.121-0.052-0.242-0.104-0.414-0.19c-0.414,0.518-0.898,1.002-1.278,1.572c-0.898,1.347-1.761,2.711-2.59,4.093
			c-0.933,1.554-1.779,3.16-2.694,4.732c-0.328,0.553-0.708,1.088-1.036,1.589c-0.259,0-0.466,0-0.656,0
			c-0.984,1.295-1.433,2.901-2.78,4.266c0.863-2.435,2.141-4.352,3.247-6.476c-0.484-0.035-0.846-0.052-1.278-0.069
			c-0.604,0.553-1.105,1.243-1.554,1.951c-0.691,1.14-1.33,2.314-2.003,3.454c-0.639,1.071-1.312,2.141-1.969,3.195
			c-0.138,0.225-0.345,0.414-0.57,0.674c-0.121-0.725-0.121-0.725,0.397-1.658c-0.363-0.086-0.691,0-0.777,0.328
			c-0.155,0.553-0.484,0.414-0.863,0.345c-0.121-0.622,0.639-1.14,0.069-1.779c-0.328,0.155-0.449,0.518-0.674,0.743
			c-0.259,0.259-0.501,0.535-0.777,0.76c-0.276,0.225-0.604,0.363-0.95,0.57c0.017,0.294,0.035,0.553,0.052,0.898
			c-0.363,0.017-0.708,0.052-1.105,0.069c0.104-0.743,0.743-1.261,0.57-2.038c-0.57-0.397-1.122-0.328-1.606,0.138
			c-0.587,0.553-1.105,1.174-1.641,1.779c-0.363,0.414-0.674,0.881-1.157,1.312c-0.207-0.311-0.173-0.604-0.086-0.846
			c0.155-0.501,0.345-1.002,0.57-1.468c0.622-1.278,1.261-2.539,1.9-3.799c0.294-0.587,0.501-1.192,0.397-1.865
			c-0.017-0.104-0.069-0.207-0.121-0.311c-0.984,0.414-1.71,1.278-2.452,2.884c-0.242,0.035-0.518,0.069-0.812,0.121
			c-0.794,1.019-1.312,2.297-2.521,3.212c-0.017-0.294-0.035-0.432-0.017-0.57c0.138-1.019,0.535-1.934,0.95-2.867
			c0.397-0.881,0.794-1.761,1.174-2.659c0.138-0.328,0.294-0.656,0.155-1.122c-0.294,0.225-0.57,0.432-0.915,0.691
			c-0.069-0.225-0.155-0.397-0.155-0.57c0-0.19,0.035-0.449,0.155-0.57c0.898-1.019,0.881-2.4,1.502-3.54
			c0.086-0.173,0.19-0.38,0.19-0.57c-0.035-0.673,0.328-1.122,0.708-1.606c0.38-0.518,0.708-1.071,1.019-1.641
			c0.449-0.812,0.846-1.641,1.278-2.47c0-0.086,0-0.173,0.017-0.259c-0.052,0.035-0.104,0.086-0.155,0.121
			c-0.276,0.035-0.57,0.052-0.829,0.121c-5.647,1.52-11.311,3.039-16.959,4.559c-0.155,0.035-0.294,0.104-0.432,0.155
			c-0.397,1.053-7.771,32.622-7.875,33.762c0.397,0.069,0.673-0.207,0.967-0.345c4.007-2.003,7.996-4.041,12.02-6.027
			c3.039-1.502,6.148-2.867,9.17-4.404c1.761-0.898,3.627-1.589,5.405-2.452c0.052-0.035,0.138,0,0.225,0
			c0.294,0.363-0.207,0.656-0.086,1.019c0.173,0.19,0.363,0.121,0.535,0.017c0.484-0.294,0.95-0.604,1.433-0.915
			c0.639-0.414,1.295-0.622,2.055-0.397c0.224,0.294,0.432,0.604,0.673,0.863c0.155,0.173,0.484,0.138,0.656-0.052
			c0.155-0.173,0.276-0.484,0.449-0.518c0.294-0.035,0.604,0.086,0.898,0.155c-0.017,0.484-0.397,0.553-0.604,0.794
			c-0.19,0.207-0.397,0.397-0.57,0.622c-0.138,0.173-0.155,0.363,0.017,0.553c0.173,0.19,0.104,0.363-0.086,0.501
			c-0.207,0.138-0.38,0.035-0.535-0.104c-0.035-0.035-0.052-0.069-0.086-0.086c-0.466-0.414-0.535-0.432-1.002-0.052
			c-0.225,0.19-0.397,0.38-0.725,0.38c-0.086-0.035-0.155-0.069-0.242-0.104c0.017,0.086,0.017,0.19,0.035,0.276
			c0.138,0.397,0.017,0.725-0.345,0.933c-0.311,0.173-0.656,0.294-0.984,0.449c-0.311,0.155-0.673,0.294-0.76,0.725
			c0.242,0.276,0.535,0.19,0.777,0.104c0.812-0.328,1.623-0.708,2.435-1.053c0.328-0.138,0.656-0.276,1.019-0.432
			c0.104,0.259,0.173,0.432,0.259,0.622c0.104-0.069,0.242-0.121,0.276-0.207c0.104-0.259,0.155-0.535,0.242-0.846
			c0.518,0.242,0.276,0.915,0.812,1.192c1.036-0.328,2.003-0.933,2.97-1.589c0.121-0.086,0.294-0.242,0.276-0.363
			c-0.035-0.708,0.622-0.777,0.984-1.105c0.328-0.294,0.725-0.518,1.209-0.414c0.173,0.225,0,0.38-0.086,0.535
			c-0.622,1.002-1.537,1.658-2.608,2.072c-0.76,0.294-1.382,0.812-2.107,1.174c-0.052,0.017-0.052,0.138-0.104,0.276
			c0.225-0.035,0.414-0.035,0.604-0.086c0.674-0.19,0.674-0.207,1.295,0.294c0.846-0.225,1.606-0.673,2.4-1.071
			c0.984-0.484,1.951-0.967,2.936-1.416c0.242-0.104,0.518-0.121,0.95-0.225c-0.553,0.777-1.226,1.157-1.761,1.71
			c-0.501,0.518-1.053,0.984-1.572,1.468c0.104,0.242,0.173,0.414,0.259,0.639c-0.673,0.673-1.485,1.209-1.951,2.072
			c-0.069,0.035-0.121,0.069-0.19,0.086c0.052,0.017,0.104,0.035,0.138,0.052c0-0.052,0.017-0.121,0.017-0.173
			c0.242,0.173,0.466,0.035,0.673-0.069c0.57-0.294,1.14-0.622,1.71-0.915c0.604-0.311,1.226-0.57,2.003-0.933
			c0.121-0.276,0.311-0.725,0.466-1.174c1.295-3.782,2.59-7.564,3.851-11.363c3.747-11.311,7.495-22.623,11.242-33.917
			c0.207-0.604,0.535-1.174,0.484-1.865c-0.017-0.155,0.19-0.345,0.276-0.518c0.155-0.328,0.363-0.639,0.432-0.984
			c0.345-1.623,0.967-3.16,1.485-4.732c2.59-7.858,5.215-15.715,7.823-23.573c0.432-1.312,0.743-2.642,0.915-4.007
			c0.242-2.021,1.364-2.901,3.402-2.694c0.674,0.069,1.364,0.19,2.021,0.38c5.336,1.606,10.638,3.316,15.801,5.457
			c1.606,0.674,3.195,1.347,4.801,2.038c0.553,0.242,1.123,0.466,1.641,0.777c0.345,0.19,0.674,0.466,0.898,0.777
			c0.518,0.725,0.363,1.572-0.449,1.934c-1.364,0.622-2.072,1.744-2.59,3.057c-1.226,3.126-2.435,6.252-3.696,9.36
			c-0.553,1.382-1.209,2.729-1.848,4.076c-0.984,2.072-2.003,4.145-2.988,6.217c-0.397,0.846-0.708,1.71-0.812,2.659
			c-0.086,0.777-0.363,1.485-0.777,2.159c-0.708,1.174-1.243,2.435-1.761,3.713c-10.344,25.887-20.689,51.756-31.033,77.626
			c-1.105,2.78-2.297,5.526-3.419,8.289c-0.449,1.088-0.76,2.21-0.812,3.402c-0.017,0.484-0.069,0.967-0.121,1.451
			c-0.19,1.675-0.086,3.316,0.484,4.905c0.035,0.104,0.052,0.242,0.086,0.414c-0.449,0.622-0.553,1.364-0.363,2.176
			c-0.553,0.397-0.656,0.984-0.812,1.589c-0.069,0.276-0.19,0.535-0.518,0.604c-0.363,0.069-0.639-0.121-0.812-0.397
			c-0.155-0.242-0.242-0.518-0.38-0.76c-0.104-0.173-0.242-0.311-0.397-0.501c-0.294,0.276-0.535,0.518-0.829,0.794
			c-0.207-0.086-0.38-0.173-0.57-0.225c-0.225-0.052-0.484-0.155-0.691-0.086c-0.915,0.294-1.917,0.328-2.694,1.019
			c-0.155,0.138-0.449,0.155-0.691,0.173c-1.157,0.069-2.228,0.363-3.178,1.053c-0.035,0.017-0.069,0.052-0.104,0.069
			c-0.207,0.104-2.521,0.363-2.729,0.311c-0.484-0.155-0.863-0.691-0.812-1.226c0.017-0.276,0.138-0.553,0.207-0.812
			c0.052-0.259,0.155-0.553-0.155-0.829c-0.535,0.276-0.881,0.777-1.295,1.226c-0.812-0.449-0.639-1.485-1.364-2.038
			c-0.294,0.276-0.57,0.535-0.863,0.812c-0.812-0.363-1.278-1.019-1.554-1.796c-0.19-0.535-0.311-1.088-0.484-1.623
			c-0.121-0.38-0.224-0.777-0.38-1.157c-0.069-0.19-0.19-0.449-0.328-0.484c-0.656-0.19-0.639-0.743-0.812-1.261
			c0.294-0.259,0.553-0.501,0.846-0.777c-0.121-0.121-0.225-0.225-0.38-0.38c2.435-7.357,4.887-14.765,7.34-22.157
			c2.435-7.357,4.87-14.696,7.322-22.088c-0.76,0.017-0.76,0.017-1.658,0.518c-0.017,0.155-0.069,0.345-0.069,0.535
			c-0.035,0.449-0.259,0.777-0.639,0.967c-2.038,1.019-3.713,2.573-5.595,3.834c-1.468,0.984-2.988,1.934-4.559,2.78
			c-12.365,6.683-24.764,13.332-37.146,19.981c-0.138,0.069-0.294,0.138-0.432,0.225c-0.414,0.242-0.812,0.242-1.278,0.104
			c-1.986-0.622-3.488-1.831-4.49-3.661c-1.019-1.882-2.228-3.661-3.471-5.405c-0.155-0.225-0.328-0.449-0.553-0.76
			c-0.138,0.225-0.276,0.363-0.328,0.535c-0.138,0.363-0.242,0.743-0.38,1.192c-0.259-0.587-0.276-0.587-0.086-1.433
			c0.104-0.466,0.276-0.915,0.121-1.399c-0.466-0.069-0.38,0.518-0.898,0.57c-0.104-0.035-0.38-0.104-0.622-0.173
			c-0.052-0.104-0.121-0.173-0.121-0.242c0-0.242,0-0.484,0.052-0.725c0.276-1.399,0.328-2.815,0.19-4.248
			c0.328-0.484,0.829-0.863,0.777-1.572c-0.035-0.57-0.035-1.105-0.57-1.382c0.225-0.432,0.501-0.173,0.743-0.311
			c0.38-0.725,0.294-1.606,0.535-2.435c-0.259-0.173-0.484-0.311-0.777-0.518c0.155-0.829,0.294-1.692,0.466-2.659
			c0.225,0.069,0.363,0.121,0.501,0.155c0.138,0.052,0.294,0.086,0.518,0.155c0.432-1.192,0.432-2.349,0.104-3.488
			c-0.207-0.673-0.259-1.295-0.104-2.003c1.036-4.645,2.038-9.308,3.057-13.971c0.898-4.024,1.813-8.03,2.711-12.054
			c0.069-0.311,0.086-0.622,0.138-0.915c-0.242-0.276-0.484-0.121-0.708-0.069c-5.215,1.295-10.413,2.608-15.646,3.868
			c-2.78,0.674-5.595,1.261-8.376,1.934c-0.535,0.121-0.95,0.017-1.347-0.276c-0.501-0.38-0.881-0.846-1.105-1.416
			c-0.276-0.674-0.501-1.364-0.725-2.055c-1.14-3.54-1.934-7.167-2.694-10.811c-0.535-2.642-1.192-5.284-1.779-7.927
			c-0.104-0.466-0.155-0.95-0.173-1.433c-0.017-0.604,0.311-1.071,0.794-1.416c0.466-0.328,0.984-0.449,1.468-0.138
			c1.451,0.898,3.005,0.812,4.576,0.449c6.269-1.451,12.589-2.556,18.893-3.765c3.851-0.725,7.668-1.589,11.501-2.383
			c0.38-0.086,0.76-0.225,1.192-0.345c0.294-1.261,0.587-2.47,0.863-3.678c2.4-10.638,4.818-21.276,7.184-31.914
			c0.553-2.487,1.019-4.991,1.485-7.478c0.104-0.501,0.207-0.933,0.708-1.174c0.501-0.259,0.674-0.777,0.898-1.347
			c0.484-0.138,1.019-0.311,1.347-0.829c0.035-0.069,0.104-0.121,0.173-0.173c0.225-0.173,0.432-0.397,0.743-0.259
			c0.328,0.138,0.501,0.414,0.518,0.76c0,0.276-0.052,0.553-0.069,0.846c0,0.19,0.035,0.38,0.069,0.535
			c0.449,0.242,0.725-0.242,1.312-0.035c-0.035-0.052,0.069,0.069,0.121,0.225c0.155,0.38,0.449,0.535,0.829,0.622
			c0.863,0.207,1.692,0.553,2.608,0.414c0.207-0.035,0.466,0.069,0.674,0.173c1.071,0.553,2.176,0.863,3.385,0.725
			c0.155-0.017,0.328-0.017,0.466,0.052c0.553,0.225,1.105,0.484,1.641,0.743c0.743,0.345,0.95,1.312,0.397,1.934
			c-0.19,0.207-0.432,0.38-0.587,0.604c-0.104,0.138-0.121,0.345-0.19,0.535c0.656,0.155,1.157-0.155,1.658-0.294
			c0.414,0.276,0.294,0.674,0.259,1.019c-0.035,0.432-0.259,0.863-0.017,1.382c0.363-0.069,0.725-0.138,1.157-0.207
			c0.466,0.553,0.535,1.243,0.484,1.917c-0.052,0.518-0.207,1.019-0.311,1.537c-0.121,0.553-0.276,1.088-0.38,1.658
			c-0.035,0.225,0,0.484,0.086,0.691c0.328,0.812,0.328,0.812-0.397,1.399c-0.138,0.121-0.242,0.311-0.276,0.501
			c-0.553,2.487-1.053,4.974-1.641,7.46c-0.518,2.193-1.122,4.386-1.658,6.58c-0.794,3.264-1.537,6.528-2.297,9.792
			c-0.052,0.242-0.086,0.484-0.121,0.725c0.294,0.294,0.622,0.138,0.915,0.069c2.141-0.414,4.283-0.846,6.424-1.278
			c5.388-1.088,10.776-2.159,16.164-3.247c0.035,0,0.086-0.017,0.121-0.017c0.777-0.138,1.572-0.121,2.331-0.466
			c0.57-0.259,1.261-0.259,1.917-0.121c1.692,0.38,3.368,0.294,5.043-0.121c0.656-0.173,1.364-0.173,2.038-0.328
			c0.743-0.155,1.485-0.38,2.21-0.587c0.19-0.052,0.38-0.155,0.57-0.207c0.725-0.207,0.933-0.104,1.312,0.622
			c0.052,0.104,0.138,0.19,0.207,0.311c0.639,0.207,1.157-0.259,1.744-0.294C317.064,193.195,317.133,193.316,317.219,193.42z
			 M300.468,254.674c1.209,0.225,1.831-0.484,2.625-0.725c0.294-0.086,0.587-0.276,0.794-0.501c0.173-0.173,0.414-0.414,0.121-0.743
			C302.782,253.12,301.763,253.845,300.468,254.674z M291.626,235.074c-0.242-0.069-0.345-0.138-0.449-0.121
			c-0.259,0.017-0.553,0.155-0.794,0.104c-0.328-0.086-0.432-0.432-0.501-0.76c-0.017-0.052-0.104-0.104-0.207-0.19
			c-0.363,0.19-0.553,0.484-0.432,0.95C289.968,235.643,290.711,235.782,291.626,235.074z M317.962,195.388
			c-0.017,0.276,0.104,0.432,0.311,0.484c0.311,0.086,0.587-0.017,0.812-0.328C318.687,195.337,318.342,195.164,317.962,195.388z"/>
		<path style="fill:#fff;" d="M385.451,239.581c0.104,0.052,0.225,0.155,0.294,0.121c0.501-0.155,0.984-0.328,1.468-0.535
			c0.449-0.19,0.863-0.414,1.243-0.587c0.363,0.207,0.363,0.432,0.225,0.674c-0.104,0.173-0.259,0.311-0.414,0.484
			c0.535,0.311,0.95,0.069,1.33-0.242c0.466-0.38,0.881-0.812,1.537-0.915c-0.069-0.225-0.121-0.38-0.173-0.535
			c0.984-1.675,2.418-2.832,4.352-3.385c0.155,0.225-0.052,0.363-0.173,0.466c-0.535,0.587-1.209,0.933-1.969,1.105
			c-0.449,0.104-0.708,0.363-0.743,0.846c0.501,0.259,0.812-0.225,1.295-0.328c0.069,0.086,0.173,0.19,0.242,0.311
			c0.086,0.138,0.138,0.276,0.173,0.38c0.708,0.225,1.019-0.708,1.71-0.466c-0.466,0.466-0.881,0.933-1.347,1.347
			c-0.484,0.414-1.019,0.777-1.485,1.123c0.138,0.518,0.259,0.967,0.414,1.485c0.587,0.311,1.14,0.104,1.589-0.484
			c0.19-0.259,0.363-0.535,0.553-0.794c0.207-0.294,0.397-0.622,0.794-0.674c0.38,0.553,0.397,0.725,0.069,1.036
			c-0.38,0.363-0.863,0.622-0.915,1.192c-0.76,0.121-1.295,0.484-1.641,1.347c0.363-0.121,0.604-0.225,0.846-0.294
			c0.225-0.052,0.466-0.069,0.777-0.104c0.017-0.311,0.052-0.604,0.069-0.933c0.604-0.104,1.192-0.259,1.761-0.017
			c0.017,0.086,0.035,0.121,0.035,0.173c0,0.035-0.017,0.069-0.035,0.104c-1.192,1.019-2.383,2.038-3.627,3.108
			c0.052,0.311,0.121,0.656,0.19,1.019c0.104,0.017,0.242,0.069,0.328,0.017c0.345-0.19,0.691-0.397,1.019-0.639
			c0.224-0.173,0.38-0.414,0.622-0.587c0.259-0.173,0.553-0.397,0.829-0.414c0.207,0,0.432,0.311,0.639,0.466
			c0.069,0.052,0.138,0.069,0.242,0.104c0.052-0.225,0.104-0.432,0.173-0.691c0.276-0.035,0.535-0.069,0.846-0.086
			c0.086-0.414,0.173-0.794,0.259-1.209c0.397-0.225,0.863-0.155,1.278-0.276c0.414-0.121,0.829-0.294,1.278-0.449
			c0.294,0.225,0.155,0.604,0.276,0.967c-0.207,0-0.328,0.017-0.432,0c-0.38-0.069-0.691,0.069-0.76,0.432
			c-0.104,0.535-0.466,0.794-0.881,1.036c-0.276,0.155-0.501,0.414-0.449,0.812c0.518,0.276,1.036,0.553,1.572,0.846
			c-0.656,0.863-2.055,1.71-3.368,2.09c-0.414,0.76-0.414,0.76-1.174,1.088c-0.449,0.19-0.898,0.363-1.036,0.915
			c-0.035,0.121-0.225,0.225-0.345,0.294c-1.174,0.553-2.193,1.364-3.229,2.141c-1.623,1.243-2.021,1.451-3.799,2.141
			c-0.069,0.225-0.138,0.484-0.225,0.743c-0.276-0.086-0.501-0.155-0.794-0.259c-0.069,0.294-0.121,0.553-0.173,0.76
			c-0.466,0.276-0.933,0.501-1.347,0.794c-2.366,1.675-4.732,3.402-7.115,5.06c-0.501,0.363-0.898,0.967-1.658,0.863
			c-0.069-0.017-0.19,0.138-0.225,0.225c-0.155,0.414-0.501,0.622-0.829,0.846c-4.853,3.35-9.654,6.787-14.558,10.068
			c-4.058,2.729-7.996,5.613-11.985,8.462c-0.95,0.674-1.848,1.451-2.763,2.176c-0.777,0.604-1.192,0.604-1.882-0.121
			c-0.656-0.708-1.295-1.451-1.865-2.228c-1.105-1.537-2.159-3.126-3.264-4.68c-1.071-1.52-2.124-3.057-3.247-4.542
			c-0.794-1.036-0.967-2.107-0.501-3.298c0.242-0.639,0.535-1.261,0.76-1.917c0.518-1.416,0.622-2.176,0.553-3.523
			c-0.19,0.069-0.397,0.069-0.518,0.173c-0.76,0.708-1.14,1.623-0.863,2.625c0.276,1.036-0.121,1.71-0.846,2.331
			c-0.242,0.207-0.518,0.363-0.76,0.518c-0.466-0.086-0.587-0.38-0.535-0.725c0.052-0.363,0.173-0.708,0.259-1.053
			c0.76-2.642,1.347-5.319,1.9-8.013c0.086-0.397,0.155-0.777,0-1.192c-0.086-0.242-0.052-0.57,0.035-0.812
			c1.623-4.922,2.642-9.982,3.73-15.042c0.915-4.266,1.9-8.514,2.815-12.779c0.587-2.729,1.105-5.457,1.623-8.203
			c0.294-1.589,0.57-3.178,0.812-4.766c0.086-0.518,0.086-1.053,0.086-1.572c0.017-0.553,0.19-1.019,0.535-1.451
			c0.933-1.123,2.884-1.675,4.145-0.708c0.898,0.691,2.003,1.019,3.074,1.416c1.209,0.466,2.383,0.984,3.592,1.433
			c1.174,0.432,2.366,0.829,3.557,1.174c0.743,0.225,1.485,0.38,2.124,0.846c0.173,0.121,0.449,0.173,0.673,0.138
			c1.157-0.138,2.245,0.173,3.298,0.587c0.743,0.294,1.502,0.604,2.262,0.863c0.777,0.276,1.036,0.622,0.95,1.416
			c-0.052,0.363-0.138,0.708-0.225,1.071c-0.484,1.831-0.984,3.661-1.451,5.509c-0.794,3.091-1.537,6.182-2.331,9.274
			c-0.224,0.898-0.466,1.796-0.812,2.659c-0.794,2.038-1.347,4.145-1.796,6.286c-0.414,1.969-0.829,3.955-1.485,5.872
			c-0.052,0.138-0.035,0.294-0.052,0.587c0.501-0.242,0.898-0.432,1.261-0.639c4.749-2.694,9.481-5.388,14.23-8.065
			c3.903-2.21,7.823-4.404,11.726-6.597c0.38-0.207,0.777-0.397,1.157-0.587c0.276,0.19,0.069,0.345-0.017,0.397
			c-0.57,0.449-1.14,0.898-1.71,1.33c-0.553,0.397-1.105,0.777-1.675,1.174c-0.017,0.052-0.035,0.121-0.052,0.173
			c0.035-0.017,0.069-0.017,0.104-0.035C385.502,239.684,385.468,239.633,385.451,239.581z"/>
		<path style="fill:#fff;" d="M121.039,165.616c-0.311,0.017-0.639,0.052-1.019,0.086c-0.38-0.363-1.002-0.587-1.123-1.261
			c0.121-0.138,0.242-0.259,0.38-0.397c0-0.104,0-0.207,0-0.311c-0.104,0.017-0.19,0.052-0.294,0.069
			c-0.086,0.173-0.173,0.328-0.259,0.501c-0.604,0.035-1.105,0.173-1.382,0.794c-0.19,0.432-0.604,0.708-0.76,1.192
			c-0.121,0.38-0.604,0.432-1.036,0.518c-0.086-0.466,0.138-0.76,0.311-1.053c0.19-0.345,0.466-0.656,0.674-1.002
			c0.294-0.518,0.57-1.053,0.933-1.744c0.19-0.069,0.553-0.242,0.933-0.328c0.708-0.173,0.898-0.052,1.243,0.743
			c0.656-0.086,0.57-0.794,1.053-1.157c0.155,0.052,0.397,0.104,0.57,0.224c0.363,0.242,0.691,0.138,1.019-0.035
			c0,0.259,0,0.518,0,0.984c0.345-0.414,0.57-0.674,0.794-0.95c0.104-0.138,0.155-0.276,0-0.397
			c-0.311,0.052-0.432,0.484-0.812,0.397c0.017-0.121,0.104-0.276,0.052-0.345c-0.259-0.363-0.207-0.725-0.052-1.105
			c0.052-0.121,0-0.294-0.017-0.587c-0.484,0.432-0.863,0.76-1.261,1.105c-0.397-0.104-0.57-0.38-0.449-0.708
			c0.155-0.449,0.345-0.898,0.604-1.295c0.294-0.432,0.674-0.794,1.002-1.209c0.276-0.345,0.639-0.622,0.691-1.123
			c-0.639-0.294-0.863,0.518-1.382,0.518c-0.242-0.207-0.173-0.432-0.017-0.622c0.259-0.345,0.553-0.674,0.863-1.071
			c-0.311-0.484-0.57-0.898-0.829-1.312c0.259-0.328,0.466-0.052,0.777-0.069c0.173-0.276,0.38-0.622,0.57-0.915
			c0.052-0.553-0.794-0.812-0.397-1.451c0.225,0.069,0.432,0.155,0.674,0.225c0.19-0.311,0.397-0.604,0.57-0.898
			c-0.052-0.242-0.086-0.484-0.155-0.794c0.345-0.035,0.639-0.069,0.933-0.086c0-0.104,0.052-0.19,0.017-0.259
			c-0.173-0.311-0.363-0.622-0.535-0.881c0.656-1.071,1.14-1.52,2.159-2.021c0.363,0.708,0.155,1.606,0.725,2.314
			c0.138-0.104,0.294-0.155,0.38-0.259c0.95-1.157,1.865-2.349,2.849-3.471c0.414-0.484,0.242-0.984,0.294-1.572
			c0.587-0.363,0.863-0.933,0.898-1.675c0-0.311,0.19-0.604,0.276-0.898c-0.104-0.207-0.207-0.414-0.311-0.639
			c0.086-0.138,0.121-0.242,0.207-0.328c0.863-0.915,1.727-1.813,2.59-2.729c0.587-0.622,1.209-1.174,1.623-1.951
			c0.173-0.311,0.466-0.553,0.725-0.794c1.641-1.502,3.281-3.005,4.922-4.49c0.484-0.432,0.898-0.915,1.174-1.52
			c0.345-0.777,0.777-0.915,1.554-0.57c0.328,0.138,0.639,0.345,0.95,0.535c2.798,1.744,5.319,3.799,7.668,6.096
			c0.518,0.501,1.105,0.933,1.658,1.416c0.173,0.155,0.38,0.311,0.484,0.518c0.363,0.708,0.898,1.243,1.572,1.658
			c1.123,0.691,2.021,1.589,2.815,2.625c0.708,0.933,1.554,1.744,2.608,2.28c0.086,0.708-0.155,1.243-0.501,1.744
			c-0.294,0.432-0.622,0.846-0.95,1.261c-7.564,9.636-15.128,19.255-22.692,28.892c-0.104,0.121-0.19,0.276-0.294,0.38
			c-0.225,0.242-0.466,0.276-0.743,0.035c-0.086-0.069-0.207-0.086-0.38-0.155c-0.984,1.226-1.986,2.435-2.97,3.644
			c-0.294,0-0.501-0.414-0.846-0.086c-0.38,0.363-0.829,0.656-1.278,1.002c-0.069,0.535,0.19,1.192-0.518,1.641
			c-0.207-0.121-0.432-0.259-0.725-0.449c-0.259,0.259-0.587,0.518-0.829,0.829c-0.276,0.363-0.725,0.017-1.053,0.345
			c-0.035,0.207-0.086,0.466-0.155,0.812c-1.174,0.846-2.21,1.9-3.212,3.057c-0.19-0.311,0.052-0.414,0.138-0.535
			c0.812-1.105,1.641-2.21,2.435-3.316c0.276-0.397,0.518-0.812,0.777-1.226c0.086-0.155,0.173-0.311,0.259-0.466
			c0.104-0.104,0.224-0.19,0.052-0.345c-0.052,0.069-0.121,0.138-0.173,0.224c-0.121,0.104-0.259,0.225-0.38,0.328
			c-0.328,0.363-0.656,0.708-0.984,1.071c-0.725,0.812-1.468,1.606-2.176,2.435c-0.535,0.604-1.019,1.243-1.641,1.986
			c0.035-0.587,0.311-0.898,0.535-1.243c0.484-0.743,1.002-1.468,1.468-2.228c2.746-4.576,5.768-8.98,9.118-13.142
			c0.224-0.276,0.414-0.57,0.622-0.846c-0.449-0.328-0.449-0.328-0.587-1.002c-0.777,0.345-1.364,0.881-1.831,1.537
			c-0.484,0.691-0.933,1.416-1.347,2.159s-0.881,1.451-1.485,2.055c-0.553,0.553-0.95,1.157-1.105,1.969
			c-0.173,0.95-1.019,1.14-1.727,0.484c-0.777-0.743-0.915-1.451-0.484-2.659c-0.069-0.155-0.155-0.328-0.242-0.518
			c-0.207-0.501-0.138-0.933,0.242-1.33c0.363-0.38,0.691-0.794,1.053-1.209c-0.104-0.345-0.207-0.691-0.311-1.002
			c0.086-0.104,0.121-0.207,0.19-0.225c0.19-0.052,0.397-0.069,0.587-0.138c0.466-0.155,0.587-0.414,0.414-0.829
			c-0.242-0.622-0.587-1.14-1.33-1.278c-0.345-0.069-0.674-0.259-1.071-0.432c-0.086,0.086-0.173,0.207-0.276,0.311
			c-0.432,0.484-0.449,0.484-1.036-0.017c-0.017-0.57,0.553-1.002,0.311-1.692c-0.19,0.173-0.363,0.294-0.484,0.449
			c-1.295,1.761-2.573,3.523-3.851,5.284c-0.207,0.294-0.449,0.553-0.604,0.743c-0.501,0.138-0.587-0.639-1.036-0.276l0.017,0.035
			c-0.052-0.173-0.104-0.345-0.155-0.535c-0.518-0.052-0.414,0.553-0.846,0.673c-0.035-0.017-0.19-0.017-0.242-0.086
			c-0.086-0.155-0.155-0.345-0.155-0.535c0-0.086,0.104-0.207,0.19-0.294c0.328-0.294,0.708-0.57,0.656-1.088
			c0-0.035,0.017-0.086,0.052-0.104c0.691-0.363,0.674-1.123,0.967-1.727c0.345-0.708,0.708-0.984,1.692-1.312
			c0.035-0.242,0.069-0.501,0.121-0.76c0.035-0.276,0.086-0.535,0.121-0.812c0.173-0.017,0.38,0,0.242-0.276
			c0.052,0.017,0.121,0.035,0.173,0.069c0-0.052,0-0.121,0-0.173c-0.052,0.052-0.104,0.086-0.173,0.138
			C121.194,165.443,121.108,165.53,121.039,165.616z M124.199,158.052c-0.207,0.19-0.414,0.363-0.604,0.57
			c-0.086,0.104-0.207,0.259,0.017,0.38c0.363-0.207,0.656-0.449,0.553-0.933h0.052L124.199,158.052z"/>
		<path style="fill:#fff;" d="M142.366,189.379c0.017-0.639,0.466-1.071,0.794-1.554c0.173-0.259,0.414-0.466,0.622-0.725
			c0.069-0.086,0.173-0.259,0.138-0.311c-0.432-0.604,0.19-0.915,0.345-1.364c0.052-0.121,0.104-0.242,0.155-0.363
			c-0.173-0.069-0.311-0.017-0.38,0.155c-0.553,0.501-1.226,0.863-1.537,1.606c-0.086,0.19-0.328,0.207-0.501,0.086
			c-0.086-0.501,0.898-0.674,0.259-1.312c-0.104-0.035-0.294-0.086-0.518-0.173c0.035-0.535-0.138-1.123,0.276-1.606
			c0.311-0.363,0.812-0.622,0.984-1.019c0.207-0.449,0.432-0.863,0.725-1.243c0.121-0.155,0.207-0.328,0.328-0.501
			c-0.794-0.345-0.794-0.345-1.813,0.242c-0.052-0.19-0.121-0.363-0.138-0.535c-0.017-0.311,0-0.639,0-0.95
			c-0.38-0.052-0.535,0.207-0.691,0.414c-0.242,0.328-0.432,0.674-0.674,1.002c-0.242,0.328-0.518,0.622-1.036,0.604
			c-0.017-0.363-0.052-0.691-0.069-1.002c0.414-0.38,1.036-0.19,1.33-0.674c0.121-0.57-0.259-0.95-0.639-1.382
			c2.331-2.59,4.715-5.094,7.305-7.46c-0.104-0.259-0.173-0.484-0.259-0.708c0.069-0.086,0.138-0.207,0.242-0.259
			c0.173-0.086,0.363-0.19,0.553-0.207c0.604-0.052,1.053-0.363,1.451-0.777c3.005-3.057,6.01-6.096,9.032-9.153
			c0.829-0.829,1.658-1.658,2.487-2.487c0.501-0.518,1.088-0.967,1.295-1.71c0.086-0.294,0.38-0.432,0.674-0.414
			c0.311,0.017,0.656,0.035,0.933,0.19c0.674,0.363,1.347,0.743,1.951,1.209c0.518,0.38,0.967,0.863,1.399,1.33
			c1.243,1.382,2.642,2.608,4.076,3.799c1.779,1.468,3.575,2.901,5.181,4.559c0.881,0.898,1.692,1.848,2.366,2.901
			c0.173,0.276,0.345,0.553,0.484,0.846c0.311,0.674,0.259,0.898-0.294,1.364c-1.278,1.088-2.297,2.383-3.316,3.678
			c-0.639,0.829-1.295,1.658-1.969,2.452c-0.622,0.743-1.33,1.416-2.072,1.969c-0.328,0.069-0.553-0.276-0.933-0.052
			c-0.881,0.518-1.692,1.088-2.418,1.813c-0.604,0.604-1.157,1.243-1.727,1.882c-0.484,0.553-1.002,1.053-1.589,1.468
			c-0.224-0.069-0.397-0.138-0.604-0.207c-0.069,0.086-0.173,0.155-0.242,0.259c-0.535,0.863-1.174,1.641-1.9,2.366
			c-2.228,2.176-4.438,4.352-6.666,6.528c-0.466,0.449-0.898,0.915-1.036,1.589c-0.104,0.466-0.345,0.794-0.846,0.915
			c-0.933,0.259-1.623,0.863-2.262,1.554c-0.414,0.449-0.812,0.898-1.243,1.33c-0.535,0.501-1.157,0.846-1.986,0.95
			c0.035-0.604,0.414-0.915,0.708-1.278c0.276-0.345,0.57-0.674,0.829-1.002c-0.121-0.259-0.294-0.466-0.294-0.673
			c0.017-0.207,0.19-0.432,0.328-0.622c0.138-0.19,0.328-0.363,0.518-0.57c-0.035-0.173-0.069-0.363-0.121-0.553
			c-0.035-0.138-0.086-0.294-0.155-0.466c-0.656,0.017-1.123,0.328-1.554,0.674c-0.397,0.328-0.777,0.708-1.157,1.071
			c-0.38,0.345-0.76,0.708-1.157,1.053c-0.363-0.121-0.674-0.207-0.95-0.294c-0.017-0.121-0.052-0.224-0.017-0.259
			c0.656-0.863,1.312-1.744,1.986-2.608c0.57-0.725,1.123-1.485,1.485-2.349c0.069-0.173,0.19-0.363,0-0.639
			c-0.345,0.242-0.674,0.484-1.071,0.777c-0.155-0.207-0.311-0.38-0.449-0.553c-0.242-0.017-0.466-0.035-0.794-0.052
			c0.242-0.294,0.449-0.535,0.656-0.794c-0.104-0.363-0.086-0.812-0.656-0.812c-0.069-0.052-0.121-0.104-0.19-0.173
			c0.138-0.242,0.276-0.484,0.414-0.743c-0.138-0.155-0.259-0.311-0.397-0.466c0.345-0.725,1.209-1.14,1.33-2.159
			c-1.433,0.604-2.124,2.038-3.454,2.573c-0.518-0.553,0.311-0.76,0.224-1.209c-0.449-0.155-0.743,0.104-1.036,0.38
			c-0.328,0.294-0.639,0.587-0.967,0.881C142.453,189.448,142.418,189.413,142.366,189.379z M142.038,179.172
			c0.017-0.035,0.035-0.069,0.035-0.104c-0.069,0-0.138-0.035-0.19-0.017c-0.035,0.017-0.035,0.104-0.052,0.155
			C141.917,179.207,141.969,179.19,142.038,179.172z"/>
		<path style="fill:#fff;" d="M197.939,338.448c1.451-6.891,2.919-13.781,4.386-20.741c0.328-0.035,0.587-0.069,0.863-0.069
			c3.143,0,6.303-0.017,9.446,0c1.088,0,2.176,0.069,3.247,0.363c0.311,0.086,0.622,0.173,0.915,0.294
			c2.763,1.088,3.903,4.007,2.625,6.683c-0.432,0.898-1.105,1.589-1.951,2.107c-0.311,0.19-0.622,0.345-1.019,0.57
			c0.121,0.138,0.19,0.276,0.311,0.345c2.677,1.52,2.849,5.25,1.14,7.564c-0.708,0.967-1.658,1.641-2.746,2.107
			c-1.382,0.604-2.849,0.846-4.352,0.95c-0.397,0.017-0.812,0.017-1.209,0.017c-3.471,0-6.942,0-10.431,0
			C198.803,338.604,198.388,338.707,197.939,338.448z M207.265,330.401c-0.138,0.656-0.259,1.209-0.363,1.761
			c-0.121,0.57-0.345,1.14-0.225,1.779c0.708,0,1.347,0.017,1.986,0c0.242,0,0.484-0.069,0.708-0.138
			c0.933-0.276,1.382-0.95,1.312-1.9c-0.069-0.863-0.604-1.382-1.623-1.468C208.508,330.366,207.938,330.401,207.265,330.401z
			 M208.387,325.686c0.345,0.017,0.674,0.052,0.984,0.052c0.363,0,0.725,0,1.088-0.035c0.242-0.035,0.466-0.104,0.691-0.207
			c0.812-0.363,1.209-1.261,0.967-2.107c-0.155-0.553-0.518-0.933-1.071-1.002c-0.674-0.104-1.347-0.121-2.038,0.035
			C208.785,323.527,208.439,324.546,208.387,325.686z"/>
		<path style="fill:#fff;" d="M285.133,338.517c-1.33,0.155-6.511,0.121-7.46-0.052c-0.121-0.449-0.086-0.933,0-1.399
			c0.173-1.036,0.363-2.072,0.535-3.108c0.086-0.484,0.173-0.95,0.19-1.433c0.035-0.829-0.363-1.278-1.192-1.399
			c-0.242-0.035-0.484-0.035-0.725-0.035c-0.311,0-0.639,0.035-1.036,0.052c-0.518,2.47-1.036,4.905-1.554,7.391
			c-0.656,0.173-1.312,0.069-1.934,0.086c-0.639,0.017-1.295,0-1.934,0c-0.639,0-1.295,0.017-1.934,0
			c-0.639-0.017-1.295,0.069-1.951-0.086c0.017-0.225-0.017-0.432,0.035-0.622c1.416-6.718,2.832-13.418,4.266-20.188
			c0.328-0.035,0.587-0.086,0.863-0.086c3.195,0,6.39-0.017,9.585,0c1.088,0,2.193,0.052,3.247,0.38
			c0.656,0.207,1.312,0.449,1.882,0.794c1.813,1.088,2.539,2.763,2.349,4.835c-0.19,2.107-1.295,3.609-3.178,4.542
			c-0.138,0.069-0.294,0.138-0.432,0.207s-0.276,0.138-0.397,0.19c-0.069,0.328,0.19,0.38,0.345,0.484
			c0.881,0.639,1.33,1.52,1.382,2.573c0.035,0.76,0.035,1.537-0.086,2.297C285.754,335.443,285.426,336.928,285.133,338.517z
			 M276.515,326.256c0.812,0.069,1.451,0.086,2.09-0.017c1.174-0.207,1.9-1.174,1.796-2.349c-0.069-0.829-0.535-1.364-1.347-1.468
			c-0.553-0.069-1.122-0.104-1.744,0.052C277.068,323.683,276.809,324.909,276.515,326.256z"/>
		<path style="fill:#fff;" d="M414.429,324.581c0.242-0.259,0.518-0.501,0.725-0.777c1.382-1.779,2.763-3.575,4.145-5.371
			c0.19-0.259,0.414-0.501,0.622-0.76c2.953,0,5.889,0,8.842,0c0.086,0.397-0.225,0.518-0.397,0.708
			c-2.297,2.383-4.611,4.749-6.925,7.132c-0.259,0.259-0.484,0.535-0.777,0.829c1.347,4.058,2.849,8.048,4.231,12.192
			c-1.451,0.155-2.815,0.052-4.162,0.069c-1.364,0.017-2.729,0-4.145,0c-0.76-2.487-1.295-4.974-2.038-7.478
			c-0.846,0.604-1.52,1.278-2.124,2.021c-0.138,0.173-0.155,0.449-0.207,0.691c-0.259,1.226-0.501,2.452-0.76,3.678
			c-0.069,0.345-0.19,0.691-0.294,1.053c-2.608,0-5.198,0-7.737,0c-0.052-0.069-0.086-0.104-0.104-0.121
			c-0.017-0.035-0.035-0.086-0.017-0.121c1.382-6.597,2.78-13.194,4.179-19.791c0.052-0.276,0.138-0.535,0.207-0.794
			c0.933-0.138,6.511-0.173,7.84-0.035c-0.017,0.225,0,0.449-0.052,0.674c-0.414,2.021-0.829,4.024-1.243,6.044
			c0,0.104-0.017,0.225-0.017,0.328C414.29,324.702,414.36,324.65,414.429,324.581z"/>
		<path style="fill:#fff;" d="M322.003,323.752c-0.19,0.035-0.311,0.086-0.414,0.086c-2.262,0-4.525,0-6.856,0
			c-0.086-0.225-0.19-0.432-0.276-0.639c-0.414-0.984-1.572-1.399-2.521-0.915c-0.708,0.363-0.846,1.192-0.259,1.71
			c0.259,0.242,0.604,0.432,0.933,0.553c0.673,0.259,1.382,0.466,2.055,0.708c0.829,0.294,1.675,0.604,2.504,0.915
			c0.38,0.155,0.725,0.363,1.088,0.553c4.645,2.418,3.506,8.238,0.691,10.275c-0.933,0.673-1.917,1.192-3.022,1.502
			c-3.022,0.846-6.062,0.881-9.101,0.138c-0.95-0.242-1.831-0.622-2.642-1.192c-1.813-1.295-2.625-3.091-2.677-5.371
			c1.278-0.225,2.521-0.069,3.765-0.104c1.209-0.017,2.418,0,3.627,0.017c0.138,0.363,0.225,0.673,0.363,0.95
			c0.535,1.088,2.124,1.502,3.143,0.863c0.691-0.449,0.829-1.399,0.224-1.986c-0.259-0.242-0.587-0.449-0.915-0.587
			c-0.553-0.242-1.14-0.414-1.71-0.622c-1.053-0.397-2.141-0.76-3.16-1.226c-0.691-0.311-1.347-0.76-1.934-1.226
			c-1.088-0.898-1.623-2.072-1.658-3.506c-0.069-3.074,1.468-5.457,4.335-6.649c2.055-0.863,4.231-1.053,6.424-0.881
			c1.088,0.086,2.176,0.207,3.212,0.587c0.484,0.173,0.984,0.345,1.451,0.587C320.863,319.417,321.934,321.161,322.003,323.752z"/>
		<path style="fill:#fff;" d="M242.425,330.781c-0.19,0.898-0.345,1.641-0.535,2.47c1.71,0.017,3.316,0,4.939,0.017
			c1.572,0,3.143,0,4.784,0c-0.052,1.019-0.535,1.831-0.812,2.694c-0.294,0.881-0.639,1.727-0.967,2.573
			c-1.364,0.121-15.629,0.104-16.544-0.017c0.069-1.002,3.661-18.254,4.335-20.775c0.207-0.035,0.432-0.104,0.656-0.104
			c5.008,0,10.034,0,15.042,0c0.19,0,0.397,0.035,0.639,0.069c0,0.225,0.035,0.432,0,0.604c-0.345,1.52-0.553,3.091-1.019,4.645
			c-2.953,0.017-5.854,0-8.738,0c-0.363,0.812-0.432,1.554-0.57,2.228c0.259,0.345,0.553,0.259,0.829,0.259c2.107,0,4.214,0,6.303,0
			c0.397,0,0.794,0.035,1.278,0.052c-0.276,1.779-0.708,3.454-1.088,5.181c-0.294,0.035-0.57,0.086-0.829,0.086
			c-2.141,0-4.283,0-6.424,0C243.323,330.781,242.926,330.781,242.425,330.781z"/>
		<path style="fill:#fff;" d="M335.456,338.535c1.451-6.977,2.919-13.885,4.369-20.654c0.138-0.138,0.155-0.19,0.19-0.207
			c0.035-0.017,0.086-0.035,0.121-0.035c5.094-0.017,10.189-0.017,15.283-0.035c0.207,0,0.397,0,0.604,0.017
			c0.069,0,0.138,0.052,0.225,0.086c-0.017,0.967-0.449,3.195-0.984,5.112c-0.933,0.207-1.9,0.069-2.867,0.086
			c-0.967,0.017-1.934,0-2.919,0c-0.967,0-1.934,0-2.936,0c-0.449,0.743-0.484,1.537-0.639,2.418
			c0.328,0.035,0.604,0.086,0.863,0.086c2.107,0,4.214,0,6.303,0c0.397,0,0.794,0.035,1.192,0.035
			c-0.086,1.226-0.76,4.317-1.157,5.284c-2.746,0-5.526,0-8.324,0c-0.311,0.812-0.518,1.572-0.501,2.47c3.229,0,6.407,0,9.602,0
			c-0.121,0.898-0.881,3.091-1.813,5.267c-0.242,0.017-0.501,0.086-0.777,0.086c-4.974,0-9.947,0-14.921,0
			C336.112,338.604,335.836,338.569,335.456,338.535z"/>
		<path style="fill:#fff;" d="M401.2,336.238c-0.345,0-0.674-0.052-0.967,0.017c-0.19,0.052-0.328,0.276-0.484,0.414
			c0.173,0.397,0.466,0.138,0.639,0.242c0.173,0.104,0.311,0.242,0.466,0.363c0.19,0.138,0.397,0.276,0.587,0.397
			c-0.812,1.382-1.243,2.832-2.849,3.402c-0.069-0.328-0.086-0.604-0.19-0.829c-0.121-0.259-0.345-0.449-0.466-0.691
			c-0.155-0.276-0.259-0.587-0.38-0.898c-0.207-0.138-0.449-0.276-0.708-0.432c0.052-0.138,0.069-0.276,0.138-0.345
			c0.345-0.276,0.708-0.518,1.071-0.794c0.414-0.328,0.414-0.639-0.017-0.984c-0.19-0.155-0.397-0.259-0.587-0.38
			c0.345-0.95,2.452-4.974,3.281-6.269c0.898,0.086,1.554,0.691,2.366,1.053c-0.501,0.501-1.071,0.052-1.537,0.259
			c-0.242,0.518-0.449,1.036-0.708,1.606c0.207,0.276,0.604,0.242,0.915,0.414c0.432,0.225,0.691,0.518,0.691,1.122
			c-0.276-0.069-0.484-0.121-0.708-0.173c-0.19-0.052-0.38-0.104-0.587-0.138c-0.121,0.449-0.242,0.846-0.363,1.243
			C400.699,335.322,401.442,335.512,401.2,336.238z"/>
		<path style="fill:#fff;" d="M119.346,176.133c0.242-0.363,0.449-0.691,0.674-1.019c0.19-0.294,0.449-0.57,0.363-0.967
			c-0.484-0.294-0.622,0.466-1.036,0.328c0.173-0.933,0.57-1.502,1.261-1.796c0.173-0.069,0.328-0.207,0.449-0.345
			c0.155-0.173,0.276-0.38,0.501-0.674c0.121,0.294,0.19,0.484,0.294,0.708c0.484,0.104,1.002,0.225,1.537,0.345
			c0.104,0.518,0.207,1.019,0.328,1.589c-0.535,0.777-1.088,1.606-1.71,2.504c0.069,0.069,0.207,0.173,0.345,0.294
			c0.121,0.104,0.242,0.19,0.345,0.259c0.104,0.691-0.484,0.812-0.846,1.192c0.069,0.259,0.121,0.553,0.224,0.95
			c-0.553-0.121-0.967,0.086-1.295,0.363c-0.086-0.086-0.138-0.104-0.138-0.138c-0.035-0.155-0.121-0.345-0.052-0.466
			c0.328-0.587,0.052-1.278,0.276-1.865c0.069-0.19,0.207-0.345,0.311-0.518c0.155-0.276,0.311-0.57,0.449-0.863
			c0.207-0.449,0.173-0.656-0.104-0.846c-0.276-0.19-0.518-0.104-0.777,0.294c-0.173,0.276-0.311,0.57-0.518,0.812
			C119.951,176.582,119.692,176.513,119.346,176.133z"/>
		<path style="fill:#fff;" d="M434.081,257.696c-0.017-0.069-0.052-0.155-0.017-0.207c1.312-2.418,2.625-4.818,3.937-7.236
			c0.052-0.104,0.104-0.207,0.138-0.259c0.38,0.086,0.311,0.276,0.259,0.397c-0.345,0.725-0.691,1.451-1.088,2.159
			c-0.207,0.363-0.345,0.691-0.363,1.122c-0.035,1.951-1.105,3.212-2.78,4.058C434.15,257.766,434.116,257.714,434.081,257.696z"/>
		<path style="fill:#fff;" d="M421.423,149.849c0.173,0.414,0.587,0.086,0.812,0.397c0.224-0.294,0.38-0.501,0.553-0.725
			c0.345,0,0.518,0.19,0.518,0.518c0,0.311-0.069,0.639-0.104,1.019c-0.242,0.224-0.535,0.501-0.812,0.743
			c-0.294-0.086-0.276-0.294-0.276-0.501c0.017-0.294,0.259-0.604,0.017-0.915c-0.501,0.224-0.501,0.224-0.898,1.692
			c0.19,0.294,0.414,0.622,0.622,0.95c-0.604,0.207-0.604,0.207-1.606-0.138c-0.086-0.535,0.207-0.984,0.449-1.433
			c0.259-0.449,0.518-0.898,0.777-1.364C421.509,150.039,421.457,149.935,421.423,149.849
			C421.423,149.832,421.423,149.849,421.423,149.849z"/>
		<path style="fill:#fff;" d="M141.952,241.411c-0.794-0.881-1.433-1.589-2.176-2.4c-0.017-0.242,0.035-0.656-0.069-1.036
			c-0.086-0.328-0.363-0.604-0.57-0.95c0.121-0.294,0.259-0.639,0.414-1.036c0.639,0.57,0.846,1.312,1.157,1.986
			C141.227,239.011,141.728,240.047,141.952,241.411z"/>
		<path style="fill:#fff;" d="M455.374,222.156c-0.052,0.587-0.328,1.157-0.035,1.779c0.069,0.138-0.052,0.38-0.121,0.57
			c-0.397,0.846-1.002,1.416-2.072,1.951c-0.017-0.121-0.069-0.225-0.052-0.328c0.121-0.604,0.449-1.105,0.777-1.623
			c0.276-0.449,0.587-0.898,0.708-1.382c0.121-0.518,0.501-0.674,0.846-0.915L455.374,222.156z"/>
		<path style="fill:#fff;" d="M429.332,270.182c0.19-1.692,1.33-2.815,1.9-4.214c0.155,0.397,0.311,0.794,0.414,1.088
			c-0.345,0.673-0.656,1.278-0.933,1.9C430.472,269.509,430.178,270.01,429.332,270.182z"/>
		<path style="fill:#fff;" d="M431.802,270.251c0.19,0.414,0.19,0.414-0.345,0.57c-0.466,1.537-0.587,1.727-1.675,2.452
			C429.937,271.909,430.627,270.977,431.802,270.251z"/>
		<path style="fill:#fff;" d="M151.588,270.787c0.086-1.209,0.587-2.245,1.364-3.229c0.363,0.725,0.224,1.312-0.19,1.865
			C152.383,269.906,151.968,270.338,151.588,270.787z"/>
		<path style="fill:#fff;" d="M227.643,238.147c0.155-0.276,0.311-0.535,0.466-0.812c0.138-0.242,0.397-0.449,0.432-0.708
			c0.121-0.691,0.639-0.933,1.192-1.243C229.473,236.611,228.869,237.474,227.643,238.147z"/>
		<path style="fill:#fff;" d="M299.656,191.848c-0.035-0.294-0.069-0.518-0.121-0.846c0.829,0.104,1.572,0.086,2.366,0.259
			C301.193,191.814,301.003,191.848,299.656,191.848z"/>
		<path style="fill:#fff;" d="M296.012,239.339c-0.138,0.898-0.466,1.502-1.416,2.78c-0.225-0.017-0.242-0.173-0.19-0.345
			C294.717,240.893,295.063,240.047,296.012,239.339z"/>
		<path style="fill:#fff;" d="M357.75,204.213c-0.086-1.226,0.553-2.09,1.537-3.057c-0.155,0.812-0.484,1.261-0.743,1.727
			C358.269,203.35,358.01,203.781,357.75,204.213z"/>
		<path style="fill:#fff;" d="M272.163,158.328c-0.535,0.155-0.915-0.035-1.226-0.328c-0.104-0.104-0.138-0.397-0.086-0.535
			c0.086-0.19,0.294-0.345,0.449-0.518C271.904,157.24,272.025,157.758,272.163,158.328z"/>
		<path style="fill:#fff;" d="M287.999,193.8c-0.276,0.259-0.397,0.414-0.553,0.484c-0.708,0.294-1.399,0.017-2.09-0.138
			C286.152,193.886,286.963,193.782,287.999,193.8z"/>
		<path style="fill:#fff;" d="M426.759,279.784c0.035-0.743,0.104-1.416,0.812-1.882
			C427.968,279.076,427.882,279.3,426.759,279.784z"/>
		<path style="fill:#fff;" d="M453.475,222.277c0.328-0.622,0.656-1.243,0.984-1.882c0.086-0.173,0.207-0.311,0.294-0.449
			c0.294,0.069,0.259,0.225,0.207,0.38C454.701,221.137,454.235,221.828,453.475,222.277z"/>
		<path style="fill:#fff;" d="M237.814,271.702c-0.121-0.915,0.173-1.675,0.57-2.487
			C238.592,270.372,238.471,270.977,237.814,271.702z"/>
		<path style="fill:#fff;" d="M151.778,272.427c0.553,0.622,0.915,1.295,1.002,2.124c-0.276,0.138-0.38-0.052-0.484-0.19
			C151.865,273.792,151.796,273.118,151.778,272.427z"/>
		<path style="fill:#fff;" d="M292.334,241.066c-0.225-1.002,0.225-1.502,0.76-2.107
			C293.301,239.909,293.267,240.013,292.334,241.066z"/>
		<path style="fill:#fff;" d="M177.613,289.075c0.311-0.363,0.535-0.639,0.743-0.898c0.276,1.105,0.242,1.623-0.207,2.59
			C177.924,290.163,178.442,289.403,177.613,289.075z"/>
		<path style="fill:#fff;" d="M304.215,310.247c0.38-0.104,0.587-0.19,0.812-0.225c0.449-0.069,0.656,0.017,0.794,0.328
			c0.155,0.345,0.069,0.604-0.276,0.829C305.027,311.111,304.647,310.8,304.215,310.247z"/>
		<path style="fill:#fff;" d="M171.085,344.32c0.691,0.484,1.105,0.967,1.105,1.848c-0.363-0.19-0.622-0.328-0.794-0.414
			c-0.104-0.104-0.155-0.138-0.155-0.173C171.172,345.201,171.137,344.821,171.085,344.32z"/>
		<path style="fill:#fff;" d="M402.789,328.017c-0.207-0.173-0.363-0.242-0.363-0.311c0.017-0.587,0.207-1.088,0.743-1.382
			c0.052-0.035,0.155,0,0.242,0c0.035,0,0.052,0.052,0.086,0.069c0,0.035,0.035,0.086,0.017,0.104
			C403.29,326.964,403.065,327.43,402.789,328.017z"/>
		<path style="fill:#fff;" d="M124.717,171.246c-0.138,0.138-0.276,0.259-0.397,0.397c-0.121,0.138-0.242,0.294-0.38,0.449
			c-0.363-0.19-0.466-0.501-0.604-0.898c0.466-0.052,0.881-0.121,1.295-0.173C124.665,171.108,124.7,171.177,124.717,171.246z"/>
		<path style="fill:#fff;" d="M454.442,172.334c0.656-0.294,1.14-0.466,1.71-0.207
			C455.651,172.835,455.478,172.869,454.442,172.334z"/>
		<path style="fill:#fff;" d="M297.791,191.969c-0.604,0.484-1.088,0.484-1.641,0.155
			C296.824,191.589,296.824,191.589,297.791,191.969z"/>
		<path style="fill:#fff;" d="M169.169,182.868c0.363-1.019,0.397-1.036,1.261-0.829
			C169.842,182.954,169.756,183.024,169.169,182.868z"/>
		<path style="fill:#fff;" d="M142.073,241.86c0.484,0.414,0.604,0.984,0.812,1.641
			C141.797,242.776,141.728,242.62,142.073,241.86z"/>
		<path style="fill:#fff;" d="M288.293,240.686c0.397-0.328,0.553-0.466,0.708-0.587c0.19-0.138,0.363-0.294,0.57-0.449
			c0.104,0.484,0,0.863-0.363,1.071C289.053,240.824,288.794,240.721,288.293,240.686z"/>
		<path style="fill:#fff;" d="M405.051,321.87c-0.017-0.276,0.242-0.708,0.553-0.777c0.086-0.017,0.225,0.052,0.294,0.138
			c0.069,0.069,0.138,0.207,0.138,0.311c-0.052,0.294-0.484,0.553-0.829,0.518C405.172,322.025,405.12,321.939,405.051,321.87z"/>
		<path style="fill:#fff;" d="M403.877,241.809c-0.276,0.155-0.587,0.328-0.881,0.501c-0.259-0.328,0.052-0.466,0.121-0.656
			c0.086-0.225,0.173-0.432,0.276-0.656C403.791,241.083,403.791,241.411,403.877,241.809z"/>
		<path style="fill:#fff;" d="M439.884,249.753c0.069,0.017,0.19-0.017,0.225,0.035c0.173,0.207,0.311,0.432,0.449,0.674
			c0.017,0.035-0.035,0.155-0.086,0.207c-0.19,0.19-0.639,0.069-0.812-0.225c-0.121-0.19-0.052-0.501,0.138-0.639
			C439.797,249.787,439.849,249.77,439.884,249.753z"/>
		<path style="fill:#fff;" d="M360.324,208.565c0.086,0.691-0.363,1.053-0.553,1.502c-0.328-0.104-0.242-0.328-0.19-0.501
			C359.667,209.187,359.926,208.893,360.324,208.565z"/>
		<path style="fill:#fff;" d="M333.021,272.427c0.086,0.604-0.207,1.053-0.57,1.727
			C332.244,273.273,332.796,272.911,333.021,272.427z"/>
		<path style="fill:#fff;" d="M294.7,244.382c0.224-0.207,0.466-0.414,0.691-0.622c0.345,0.397,0.397,0.622,0.207,0.812
			C295.373,244.813,295.08,244.762,294.7,244.382z"/>
		<path style="fill:#fff;" d="M296.772,237.56c0.207-0.622,0.397-1.002,0.846-1.261
			C297.705,236.939,297.463,237.301,296.772,237.56z"/>
		<path style="fill:#fff;" d="M455.409,222.173c0.104-0.397,0.173-0.812,0.656-1.036c-0.138,0.656-0.138,0.604-0.691,1.002
			C455.374,222.156,455.409,222.173,455.409,222.173z"/>
		<path style="fill:#fff;" d="M164.178,188.032c-0.19,0.19-0.363,0.38-0.691,0.708
			C163.521,188.187,163.815,188.049,164.178,188.032z"/>
		<path style="fill:#fff;" d="M316.977,193.074c0.104-0.035,0.207-0.104,0.328-0.121c0.052-0.017,0.19,0.035,0.19,0.052
			c0,0.104-0.017,0.207-0.069,0.294c-0.035,0.052-0.121,0.086-0.19,0.121C317.133,193.316,317.064,193.195,316.977,193.074z"/>
		<path style="fill:#fff;" d="M146.563,190.415c-0.086,0.086-0.173,0.155-0.259,0.242l0.017,0.035
			c-0.173-0.173-0.052-0.294,0.052-0.432C146.442,190.294,146.494,190.363,146.563,190.415z"/>
		<path style="fill:#fff;" d="M142.487,189.482c-0.086,0.104-0.173,0.173-0.259,0.035c0-0.017,0.086-0.086,0.138-0.138
			C142.418,189.413,142.453,189.448,142.487,189.482z"/>
		<path style="fill:#fff;" d="M146.304,190.639c-0.069,0.017-0.121,0.052-0.19,0.069c0.035-0.155,0.104-0.173,0.207-0.052
			C146.321,190.674,146.304,190.639,146.304,190.639z"/>
		<path style="fill:#fff;" d="M416.052,297.33c0.035-0.017,0.069-0.035,0.104-0.035c0.017,0,0.017,0.035,0.035,0.052
			c-0.052-0.017-0.104-0.035-0.155-0.052C416.052,297.295,416.052,297.33,416.052,297.33z"/>
		<path style="fill:#fff;" d="M420.335,288.073c-0.104,0.035-0.19,0.069-0.294,0.121c0-0.138-0.017-0.276-0.017-0.397
			C420.128,287.883,420.231,287.987,420.335,288.073z"/>
		<path style="fill:#fff;" d="M118.604,172.161c-0.035,0.052-0.052,0.121-0.086,0.173c-0.017-0.052-0.035-0.104-0.052-0.138
			c0.052,0,0.121,0,0.173,0C118.621,172.196,118.604,172.161,118.604,172.161z"/>
		<polygon style="fill:#fff;" points="453.181,222.881 453.233,222.83 453.198,222.864 		"/>
		<polygon style="fill:#fff;" points="305.303,247.715 305.355,247.784 305.251,247.784 		"/>
		<polygon style="fill:#fff;" points="453.198,222.864 453.181,222.916 453.181,222.881 		"/>
		<path style="fill:#FFFFFF;" d="M158.686,262.946c0-0.104-0.017-0.207-0.017-0.328c0-0.035,0.035-0.052,0.052-0.086
			c0.052,0.052,0.138,0.138,0.121,0.155c-0.035,0.086-0.121,0.155-0.19,0.225C158.669,262.929,158.686,262.946,158.686,262.946z"/>
		<path style="fill:#000;" d="M386.487,328.639c0.138,0.138,0.19,0.242,0.276,0.294c1.174,0.743,1.589,1.882,1.623,3.212
			c0.017,0.518-0.035,1.053-0.121,1.572c-0.276,1.589-0.57,3.178-0.863,4.766c-0.812,0.173-5.63,0.225-7.409,0.052
			c-0.035-0.207-0.086-0.432-0.104-0.656c-0.017-1.433,0.363-2.798,0.587-4.196c0.069-0.363,0.138-0.708,0.155-1.071
			c0.035-0.95-0.38-1.399-1.347-1.502c-0.155-0.017-0.328-0.017-0.484-0.017c-0.328,0-0.639,0-1.019,0
			c-0.104,0.276-0.207,0.535-0.259,0.794c-0.414,2.021-0.829,4.024-1.243,6.044c-0.035,0.19-0.104,0.38-0.155,0.639
			c-0.863,0.086-1.71,0.035-2.539,0.052c-0.881,0.017-1.779,0.017-2.659,0c-0.846-0.017-1.692,0.069-2.625-0.069
			c1.451-6.977,2.936-13.902,4.404-20.844c0.38-0.017,0.656-0.052,0.933-0.052c3.143,0,6.303-0.017,9.446,0
			c1.088,0,2.176,0.069,3.247,0.363c0.38,0.104,0.777,0.242,1.14,0.397c2.383,1.019,3.627,3.126,3.022,6.027
			c-0.363,1.692-1.382,2.884-2.901,3.678C387.247,328.276,386.884,328.449,386.487,328.639z M378.785,326.273
			c0.725,0,1.278,0.052,1.831,0c1.347-0.121,2.072-1.002,2.021-2.349c-0.035-0.898-0.484-1.433-1.382-1.52
			c-0.535-0.052-1.105-0.121-1.692,0.086C379.32,323.717,379.061,324.926,378.785,326.273z"/>
		<path style="fill:#FFFFFF;" d="M412.374,303.599c0.052,0,0.121,0.017,0.173,0.017c-0.035,0.017-0.052,0.035-0.086,0.035
			C412.443,303.633,412.408,303.599,412.374,303.599C412.356,303.581,412.374,303.599,412.374,303.599z"/>
		<path style="fill:#FFFFFF;" d="M288.189,219.928c0.052-0.035,0.104-0.086,0.155-0.121c0,0.086-0.017,0.173-0.017,0.259
			C288.276,220.032,288.224,219.98,288.189,219.928z"/>
		<path style="fill:#fff;" d="M378.785,326.273c0.276-1.347,0.518-2.556,0.777-3.782c0.587-0.207,1.14-0.138,1.692-0.086
			c0.898,0.086,1.347,0.604,1.382,1.52c0.052,1.347-0.674,2.228-2.021,2.349C380.08,326.325,379.51,326.273,378.785,326.273z"/>
	</g>
</g>
</svg>
